<?xml version="1.0" encoding="utf-8"?>
<!-- Generator: Adobe Illustrator 25.0.0, SVG Export Plug-In . SVG Version: 6.00 Build 0)  -->
<svg version="1.1" id="Layer_1" xmlns="http://www.w3.org/2000/svg" xmlns:xlink="http://www.w3.org/1999/xlink" x="0px" y="0px"
	 viewBox="0 0 403.18 135.79" style="enable-background:new 0 0 403.18 135.79;" xml:space="preserve">
<style type="text/css">
	.st0{fill:#808285;}
</style>
<g>
	<polygon class="st0" points="368.73,94.87 302.11,94.87 302.01,94.8 302.01,94.24 302.11,94.17 368.03,94.17 368.03,28.16 
		35.15,28.16 35.15,94.17 101.07,94.17 101.17,94.27 101.17,94.77 101.07,94.87 34.45,94.87 34.45,27.46 368.73,27.46 	"/>
</g>
<g>
	<path d="M82.06,60.9c0,6.26-4.22,11.3-10.92,11.3c-6.38,0-10.92-4.48-10.92-11.3c0-6.57,4.19-11.68,10.8-11.68
		C77.39,49.22,82.06,53.44,82.06,60.9z M77.23,61.44c0-7.4-1.71-10.99-6.41-10.99c-4.06,0-5.78,3.81-5.78,9.62
		c0,7.14,2.22,10.92,6.32,10.92C75.58,71,77.23,67.44,77.23,61.44z"/>
	<path d="M86.56,60.74c0-1.49-0.13-2.99-0.35-3.59l-2-0.16l-0.13-0.13v-0.76l0.13-0.16c1.11,0.09,2.7,0.09,3.53,0.09
		c0.6,0,1.49,0,2.35-0.09l0.25,0.16c0.16,0.35,0.25,0.67,0.32,0.95c0.98-0.63,2.32-1.4,4.35-1.4c4.03,0,7.27,2.35,7.27,8.19
		c0,5.02-3.05,8.19-7.34,8.19c-1.87,0-3.11-0.54-3.91-1.05v7.78l2.48,0.16l0.09,0.13v0.76l-0.09,0.16
		c-1.11-0.09-4.03-0.09-4.86-0.09c-0.92,0-3.05,0.09-4.16,0.09l-0.13-0.16v-0.76l0.13-0.13l2.06-0.16V60.74z M91.04,69.79
		c0.64,0.48,1.71,0.98,3.02,0.98c2.22,0,3.56-1.71,3.56-6.95c0-5.3-1.56-6.76-3.49-6.76c-1.24,0-2.38,0.54-3.27,1.14
		c0.1,0.54,0.19,1.56,0.19,2.98V69.79z"/>
	<path d="M119.43,69.47v0.16c-1.3,1.21-2.95,2.41-6.06,2.41c-5.3,0-7.91-3.49-7.91-8.16s2.73-8.16,7.87-8.16
		c4.32,0,6.51,2.99,6.51,6.76c0,0.13,0,0.48-0.09,0.63l-0.29,0.25h-9.33v0.35c0,4.48,1.33,6.8,4.25,6.8c2.03,0,3.27-0.86,4.32-1.84
		l0.16,0.03L119.43,69.47z M115.78,62.23c-0.09-3.21-0.6-5.43-2.64-5.43c-2.1,0-2.95,2.54-2.95,5.4L115.78,62.23z"/>
	<path d="M122.16,55.95c1.08,0.09,3.11,0.09,3.56,0.09c0.76,0,2.22-0.09,2.54-0.09l0.16,0.16l0.38,1.65h0.03
		c1.53-1.11,3.08-2.03,5.46-2.03c2.67,0,4.98,1.05,4.98,4.89v10l2.06,0.16l0.13,0.13v0.76l-0.13,0.16c-1.11-0.1-3.53-0.1-4.35-0.1
		c-0.92,0-2.86,0-3.97,0.1l-0.13-0.16V70.9l0.13-0.13l1.78-0.16V60.49c0-2.06-0.63-3.05-2.32-3.05c-1.3,0-2.38,0.6-3.56,1.52v11.65
		l1.78,0.16l0.09,0.13v0.76l-0.09,0.16c-1.08-0.1-3.17-0.1-4-0.1c-0.92,0-3.11,0-4.29,0.1l-0.13-0.16V70.9l0.13-0.13l2.03-0.16
		v-9.49c0-1.49-0.06-3.11-0.41-3.97L122.16,57l-0.13-0.13v-0.76L122.16,55.95z"/>
	<path d="M150.9,70.78l-0.13-0.25l-0.38-4.92l0.19-0.16h1.49l0.19,0.16l0.86,4.32l0.13,0.16c0.6,0.35,2.35,0.92,4.06,0.92
		c3.02,0,4.79-1.52,4.79-3.97c0-2.64-2.03-3.4-4.98-4.25c-3.4-1.02-6.76-2.41-6.76-7.02c0-4.19,3.59-6.54,7.49-6.54
		c2.29,0,4.16,0.41,6.1,1.3l0.13,0.25l0.38,4.73l-0.19,0.16h-1.4l-0.19-0.16l-0.86-4.13l-0.13-0.16c-0.67-0.35-2-0.76-3.53-0.76
		c-2.29,0-4.51,0.98-4.51,3.84c0,2.35,2.19,3.4,4.92,4.25c3.46,1.11,6.76,2.25,6.76,6.99c0,4.06-3.05,6.67-7.91,6.67
		C154.93,72.21,152.8,71.67,150.9,70.78z"/>
	<path d="M169.28,60.74c0-1.49-0.13-2.99-0.35-3.59l-2-0.16l-0.13-0.13v-0.76l0.13-0.16c1.11,0.09,2.7,0.09,3.52,0.09
		c0.6,0,1.49,0,2.35-0.09l0.25,0.16c0.16,0.35,0.25,0.67,0.32,0.95c0.98-0.63,2.32-1.4,4.35-1.4c4.03,0,7.27,2.35,7.27,8.19
		c0,5.02-3.05,8.19-7.33,8.19c-1.87,0-3.11-0.54-3.91-1.05v7.78l2.48,0.16l0.1,0.13v0.76l-0.1,0.16c-1.11-0.09-4.03-0.09-4.86-0.09
		c-0.92,0-3.05,0.09-4.16,0.09l-0.13-0.16v-0.76l0.13-0.13l2.06-0.16V60.74z M173.76,69.79c0.63,0.48,1.71,0.98,3.02,0.98
		c2.22,0,3.56-1.71,3.56-6.95c0-5.3-1.56-6.76-3.49-6.76c-1.24,0-2.38,0.54-3.27,1.14c0.1,0.54,0.19,1.56,0.19,2.98V69.79z"/>
	<path d="M202.15,69.47v0.16c-1.3,1.21-2.95,2.41-6.06,2.41c-5.3,0-7.91-3.49-7.91-8.16s2.73-8.16,7.88-8.16
		c4.32,0,6.51,2.99,6.51,6.76c0,0.13,0,0.48-0.1,0.63l-0.29,0.25h-9.33v0.35c0,4.48,1.33,6.8,4.25,6.8c2.03,0,3.27-0.86,4.32-1.84
		l0.16,0.03L202.15,69.47z M198.5,62.23c-0.1-3.21-0.6-5.43-2.64-5.43c-2.1,0-2.95,2.54-2.95,5.4L198.5,62.23z"/>
	<path d="M204.88,55.95c1.08,0.09,3.11,0.09,3.56,0.09c0.76,0,2.22-0.09,2.54-0.09l0.16,0.16l0.38,1.65h0.03
		c1.53-1.11,3.08-2.03,5.46-2.03c2.67,0,4.98,1.05,4.98,4.89v10l2.06,0.16l0.13,0.13v0.76l-0.13,0.16c-1.11-0.1-3.53-0.1-4.35-0.1
		c-0.92,0-2.86,0-3.97,0.1l-0.13-0.16V70.9l0.13-0.13l1.78-0.16V60.49c0-2.06-0.63-3.05-2.32-3.05c-1.3,0-2.38,0.6-3.56,1.52v11.65
		l1.78,0.16l0.09,0.13v0.76l-0.09,0.16c-1.08-0.1-3.17-0.1-4-0.1c-0.92,0-3.11,0-4.29,0.1L205,71.67V70.9l0.13-0.13l2.03-0.16v-9.49
		c0-1.49-0.06-3.11-0.41-3.97L204.88,57l-0.13-0.13v-0.76L204.88,55.95z"/>
	<path d="M242.22,48.49V67c0,1.49,0.16,2.76,0.44,3.62l1.87,0.16l0.13,0.13v0.76l-0.13,0.16c-1.11-0.1-2.98-0.1-3.33-0.1
		c-0.63,0-1.52,0-2.25,0.1l-0.19-0.13c-0.22-0.22-0.38-0.7-0.41-0.95h-0.1c-0.73,0.48-2.35,1.33-4.48,1.33
		c-4.22,0-7.27-2.57-7.27-8.16c0-5.08,3.14-8.22,7.33-8.22c1.91,0,3.11,0.57,3.91,1.11v-7.24l-2.32-0.13l-0.13-0.16v-0.79l0.13-0.16
		c1.11,0.1,2.99,0.1,3.94,0.1c0.86,0,2.1,0,2.7-0.1L242.22,48.49z M238,69.73c-0.16-0.67-0.25-2.06-0.25-3.37v-8.29
		c-0.63-0.48-1.65-0.98-3.02-0.98c-2.54,0-3.56,2.25-3.56,6.86c0,5.3,1.43,6.83,3.49,6.83C235.77,70.78,237.11,70.4,238,69.73z"/>
	<path d="M246.03,57l-0.13-0.13v-0.76l0.13-0.16c1.11,0.09,2.99,0.09,4.1,0.09c0.64,0,1.91,0,2.51-0.09l0.16,0.16v14.51l2.06,0.16
		l0.13,0.13v0.76l-0.13,0.16c-1.11-0.1-3.59-0.1-4.38-0.1c-0.92,0-3.11,0.1-4.19,0.1l-0.13-0.16V70.9l0.13-0.13l2.03-0.16V57.15
		L246.03,57z M250.22,48.55c1.49,0,2.57,0.95,2.57,2.48c0,1.49-1.08,2.38-2.57,2.38s-2.57-0.89-2.57-2.38
		C247.65,49.5,248.73,48.55,250.22,48.55z"/>
	<path d="M256.64,55.95c1.08,0.09,3.11,0.09,3.56,0.09c0.76,0,2.22-0.09,2.54-0.09l0.16,0.16l0.38,1.65h0.03
		c1.52-1.11,3.08-2.03,5.46-2.03c2.67,0,4.99,1.05,4.99,4.89v10l2.06,0.16l0.13,0.13v0.76l-0.13,0.16c-1.11-0.1-3.52-0.1-4.35-0.1
		c-0.92,0-2.86,0-3.97,0.1l-0.13-0.16V70.9l0.13-0.13l1.78-0.16V60.49c0-2.06-0.63-3.05-2.32-3.05c-1.3,0-2.38,0.6-3.56,1.52v11.65
		l1.78,0.16l0.09,0.13v0.76l-0.09,0.16c-1.08-0.1-3.18-0.1-4-0.1c-0.92,0-3.11,0-4.29,0.1l-0.13-0.16V70.9l0.13-0.13l2.03-0.16
		v-9.49c0-1.49-0.06-3.11-0.41-3.97L256.64,57l-0.13-0.13v-0.76L256.64,55.95z"/>
	<path d="M288.9,55.95c0.35,0.03,1.24,0.06,1.65,0.06c0.44,0,2.03,0.03,3.21-0.06l0.16,0.16v1.05l-0.16,0.16l-3.49,0.22
		c1.02,0.98,1.62,2.44,1.62,4.1c0,3.46-2.76,5.65-6.67,5.65c-1.49,0-2.51-0.25-3.4-0.73l-0.25,0.25c-0.51,0.48-1.3,1.27-1.3,2.13
		s0.57,1.46,2.1,1.46c1.62,0,4.06-0.35,6.07-0.35c3.43,0,5.68,1.33,5.68,4.64c0,3.27-2.79,5.81-8.38,5.81
		c-2.25,0-4.45-0.38-5.72-0.86l-0.13-0.25l-0.32-3.05l0.22-0.16h1.68l0.22,0.16l0.79,2.45l0.13,0.16c0.6,0.22,1.62,0.48,3.24,0.48
		c3.72,0,5.65-1.4,5.65-3.46c0-1.62-1.05-2.45-3.75-2.45c-1.37,0-3.87,0.32-5.65,0.32c-3.3,0-4.19-1.59-4.19-3.4
		c0-1.65,1.3-3.14,2.32-3.91l0.67-0.51c-1.27-0.79-2.48-2.44-2.48-4.51c0-3.05,2.48-5.78,6.86-5.78c1.14,0,2.41,0.22,3.27,0.6
		L288.9,55.95z M287.78,62.39c0-3.68-0.54-5.65-2.54-5.65c-1.91,0-2.64,1.52-2.64,4.1c0,3.56,0.95,5.4,2.76,5.4
		C287.12,66.24,287.78,64.9,287.78,62.39z"/>
	<path d="M308.9,61.06v9.49h7.02l0.16-0.13l1.02-3.65l0.19-0.16h1.43l0.19,0.16l-0.48,4.89l-0.16,0.16c-3.4-0.1-8.26-0.1-11.75-0.1
		c-0.92,0-3.46,0-4.57,0.1l-0.16-0.19v-0.79l0.16-0.16l2.35-0.19V50.93l-2.35-0.19l-0.16-0.16v-0.79l0.16-0.19
		c1.11,0.09,6.03,0.13,6.86,0.13c2.54,0,7.21-0.13,8.86-0.13l0.16,0.16l0.32,4.76l-0.19,0.16h-1.4l-0.19-0.16l-0.92-3.52l-0.16-0.13
		h-6.38v8.61h4.51l0.16-0.13l0.57-2.25l0.19-0.16h1.37l0.19,0.16c-0.09,0.76-0.16,2.1-0.16,3.21c0,0.76,0.06,2.29,0.16,3.17
		l-0.19,0.16h-1.37l-0.19-0.16l-0.57-2.29l-0.16-0.13H308.9z"/>
	<path d="M339.19,63.44V50.93l-2.13-0.19l-0.16-0.16v-0.79l0.16-0.19c1.05,0.09,2.13,0.13,2.89,0.13c0.79,0,1.81-0.03,2.86-0.13
		l0.16,0.19v0.79l-0.16,0.16l-2.06,0.19v12.35c0,5.97-2.1,8.73-8.42,8.73s-8.92-2.99-8.92-8.32V50.93l-2.35-0.19l-0.16-0.16v-0.79
		l0.16-0.19c1.11,0.09,3.27,0.13,4.6,0.13c1.52,0,3.59-0.13,4.73-0.13l0.16,0.19v0.79l-0.16,0.16l-2.38,0.19v12.99
		c0,4.7,1.78,6.54,5.21,6.54C337.32,70.46,339.19,68.52,339.19,63.44z"/>
</g>
<g>
	<g>
		<path class="st0" d="M115.55,93.97c1.55,0,2.81,0.25,4.12,0.87l0.08,0.16l0.19,2.98l-0.12,0.1h-0.89l-0.14-0.1l-0.56-2.56
			l-0.08-0.1c-0.46-0.25-1.3-0.6-2.44-0.6c-2.69,0-4.09,2.32-4.09,6.25s1.72,6.27,4.12,6.27c0.91,0,1.7-0.19,2.32-0.56l0.08-0.1
			l0.7-2.79l0.12-0.1h0.93l0.12,0.1l-0.29,3.06l-0.08,0.15c-1.32,0.68-2.81,0.97-4.28,0.97c-4.11,0-6.68-2.67-6.68-7.01
			C108.69,96.7,111.73,93.97,115.55,93.97z"/>
		<path class="st0" d="M144.74,101.09c0,3.81-2.58,6.89-6.66,6.89c-3.89,0-6.66-2.73-6.66-6.89c0-4.01,2.56-7.13,6.58-7.13
			C141.89,93.97,144.74,96.54,144.74,101.09z M141.79,101.42c0-4.51-1.04-6.7-3.91-6.7c-2.48,0-3.52,2.32-3.52,5.87
			c0,4.36,1.36,6.66,3.85,6.66C140.79,107.25,141.79,105.08,141.79,101.42z"/>
		<path class="st0" d="M160.49,94.31l0.12-0.12c0.25,0,1.55-0.04,1.88-0.16l0.12,0.1l4.49,12.8l1.2,0.14l0.1,0.1v0.46l-0.1,0.12
			c-0.68-0.06-2.19-0.06-2.85-0.06c-0.75,0-1.9,0-2.58,0.06l-0.1-0.12v-0.46l0.1-0.1l1.2-0.14l-1.16-3.66h-4.61l-1.18,3.66
			l1.24,0.14l0.1,0.12v0.43l-0.1,0.14c-0.68-0.02-1.24-0.06-1.8-0.06c-0.52,0-0.95,0-1.63,0.06l-0.1-0.12v-0.46l0.1-0.1l1.2-0.14
			L160.49,94.31z M158.59,102.45h4.05l-1.94-5.85h-0.1L158.59,102.45z"/>
		<path class="st0" d="M180.06,106.94V95.01l-1.43-0.12l-0.1-0.1v-0.48l0.1-0.12c0.66,0.06,2.3,0.08,2.81,0.08
			c0.56,0,2.48-0.08,3.16-0.08l0.1,0.12v0.48l-0.1,0.1l-1.72,0.12v11.97h3.72l0.1-0.08l0.64-2.4l0.12-0.1h0.89l0.12,0.1l-0.33,3.16
			l-0.1,0.1c-2.07-0.06-5.03-0.08-6.62-0.08c-1.1,0-2.09,0.06-2.77,0.08l-0.1-0.12v-0.48l0.1-0.1L180.06,106.94z"/>
		<path class="st0" d="M199.45,107.75l-0.1-0.12v-0.48l0.1-0.1l1.43-0.12V95.01l-1.43-0.12l-0.1-0.1v-0.48l0.1-0.12
			c0.66,0.06,2.3,0.08,2.81,0.08c0.56,0,2.17-0.08,2.87-0.08l0.1,0.12v0.48l-0.1,0.1l-1.43,0.12v11.93l1.43,0.12l0.1,0.1v0.48
			l-0.1,0.12c-0.7-0.06-2.38-0.06-2.88-0.06C201.68,107.69,200.13,107.75,199.45,107.75z"/>
		<path class="st0" d="M227.7,94.2l0.1,0.1l0.17,2.96l-0.12,0.1h-0.91l-0.12-0.1l-0.54-2.21l-0.1-0.08h-2.77v11.97l1.74,0.12
			l0.1,0.1v0.48l-0.1,0.12c-0.7-0.06-2.69-0.06-3.2-0.06c-0.5,0-2.48,0-3.16,0.06l-0.1-0.12v-0.48l0.1-0.1l1.76-0.12V94.97h-2.77
			l-0.1,0.08l-0.54,2.21l-0.12,0.1h-0.91l-0.12-0.1l0.17-2.96l0.1-0.1c1.01,0,4.1,0.08,5.65,0.08
			C223.52,94.28,226.67,94.2,227.7,94.2z"/>
		<path class="st0" d="M238.86,107.75l-0.1-0.12v-0.48l0.1-0.1l1.43-0.12V95.01l-1.43-0.12l-0.1-0.1v-0.48l0.1-0.12
			c0.66,0.06,2.3,0.08,2.81,0.08c0.56,0,2.17-0.08,2.87-0.08l0.1,0.12v0.48l-0.1,0.1l-1.43,0.12v11.93l1.43,0.12l0.1,0.1v0.48
			l-0.1,0.12c-0.7-0.06-2.38-0.06-2.88-0.06C241.09,107.69,239.54,107.75,238.86,107.75z"/>
		<path class="st0" d="M269.3,101.09c0,3.81-2.58,6.89-6.66,6.89c-3.89,0-6.66-2.73-6.66-6.89c0-4.01,2.56-7.13,6.58-7.13
			C266.45,93.97,269.3,96.54,269.3,101.09z M266.35,101.42c0-4.51-1.05-6.7-3.91-6.7c-2.48,0-3.52,2.32-3.52,5.87
			c0,4.36,1.36,6.66,3.85,6.66C265.35,107.25,266.35,105.08,266.35,101.42z"/>
		<path class="st0" d="M282.03,95.01l-1.3-0.12l-0.1-0.1v-0.48l0.1-0.12c0.64,0.06,1.26,0.04,1.65,0.04c0.25,0,1.22-0.04,1.67-0.04
			l0.17,0.12l7.28,8.98v-8.29l-1.39-0.12l-0.1-0.1v-0.48l0.1-0.12c0.68,0.06,1.38,0.06,1.82,0.06c0.52,0,1.12-0.02,1.8-0.06
			l0.1,0.12v0.48l-0.1,0.1l-1.32,0.12v12.62l-0.14,0.12c-0.13-0.04-0.25-0.06-0.33-0.06c-0.1,0-0.19,0.02-0.33,0.06l-0.17-0.12
			l-8.5-10.55v9.86l1.34,0.12l0.1,0.1v0.48l-0.1,0.12c-0.68-0.04-1.26-0.06-1.74-0.06c-0.48,0-1.18,0.04-1.8,0.06l-0.1-0.12v-0.48
			l0.1-0.1l1.3-0.12V95.01z"/>
	</g>
</g>
</svg>
