<?xml version="1.0" encoding="utf-8"?>
<!-- Generator: Adobe Illustrator 24.3.0, SVG Export Plug-In . SVG Version: 6.00 Build 0)  -->
<svg version="1.1" id="Calque_1" xmlns="http://www.w3.org/2000/svg" xmlns:xlink="http://www.w3.org/1999/xlink" x="0px" y="0px"
	 viewBox="0 0 549.2 173.6" style="enable-background:new 0 0 549.2 173.6;" xml:space="preserve">
<style type="text/css">
	.st0{fill-rule:evenodd;clip-rule:evenodd;fill:url(#SVGID_1_);}
	.st1{fill-rule:evenodd;clip-rule:evenodd;fill:url(#SVGID_2_);}
	.st2{fill-rule:evenodd;clip-rule:evenodd;fill:url(#SVGID_3_);}
	.st3{fill-rule:evenodd;clip-rule:evenodd;fill:url(#SVGID_4_);}
	.st4{fill-rule:evenodd;clip-rule:evenodd;fill:url(#SVGID_5_);}
	.st5{fill-rule:evenodd;clip-rule:evenodd;fill:url(#SVGID_6_);}
	.st6{fill-rule:evenodd;clip-rule:evenodd;fill:url(#SVGID_7_);}
	.st7{fill-rule:evenodd;clip-rule:evenodd;fill:url(#SVGID_8_);}
	.st8{fill-rule:evenodd;clip-rule:evenodd;fill:url(#SVGID_9_);}
	.st9{fill-rule:evenodd;clip-rule:evenodd;fill:url(#SVGID_10_);}
	.st10{fill-rule:evenodd;clip-rule:evenodd;fill:url(#SVGID_11_);}
	.st11{fill-rule:evenodd;clip-rule:evenodd;fill:url(#SVGID_12_);}
	.st12{fill-rule:evenodd;clip-rule:evenodd;fill:url(#SVGID_13_);}
	.st13{fill-rule:evenodd;clip-rule:evenodd;fill:url(#SVGID_14_);}
	.st14{fill-rule:evenodd;clip-rule:evenodd;fill:url(#SVGID_15_);}
	.st15{fill-rule:evenodd;clip-rule:evenodd;fill:url(#SVGID_16_);}
	.st16{fill-rule:evenodd;clip-rule:evenodd;fill:url(#SVGID_17_);}
	.st17{fill-rule:evenodd;clip-rule:evenodd;fill:url(#SVGID_18_);}
	.st18{fill-rule:evenodd;clip-rule:evenodd;fill:url(#SVGID_19_);}
	.st19{fill-rule:evenodd;clip-rule:evenodd;fill:url(#SVGID_20_);}
	.st20{fill-rule:evenodd;clip-rule:evenodd;fill:url(#SVGID_21_);}
	.st21{fill-rule:evenodd;clip-rule:evenodd;fill:url(#SVGID_22_);}
	.st22{fill-rule:evenodd;clip-rule:evenodd;fill:url(#SVGID_23_);}
	.st23{fill-rule:evenodd;clip-rule:evenodd;fill:url(#SVGID_24_);}
	.st24{fill-rule:evenodd;clip-rule:evenodd;fill:url(#SVGID_25_);}
	.st25{fill-rule:evenodd;clip-rule:evenodd;fill:url(#SVGID_26_);}
	.st26{fill-rule:evenodd;clip-rule:evenodd;fill:url(#SVGID_27_);}
	.st27{fill-rule:evenodd;clip-rule:evenodd;fill:url(#SVGID_28_);}
	.st28{fill-rule:evenodd;clip-rule:evenodd;fill:url(#SVGID_29_);}
</style>
<linearGradient id="SVGID_1_" gradientUnits="userSpaceOnUse" x1="266.3555" y1="60.9604" x2="323.9655" y2="60.9604">
	<stop  offset="0" style="stop-color:#D870A9"/>
	<stop  offset="0.5" style="stop-color:#C8007F"/>
	<stop  offset="1" style="stop-color:#A11880"/>
</linearGradient>
<path class="st0" d="M281,46.6h-11.4c-1.2,0-1.4,0.1-1.6,1.3c-0.3,1.7-3.2,13.6-0.8,16.3c1.6,1.8,6.2,2.2,8,1.1
	c0.5-0.3,2-1.6,2.9-1.8c4.5-1.1,8.2,2,9.1,3c1.6,1.9,1.7,5.2,0.8,6.9c-1.3,2.6-5.9,4.5-8.7,4.1c-2-0.3-4-3.4-5.8-3.8
	c-4.1-0.8-6,2.3-6.5,3.1c-1.1,1.7-1.1,5.5,0.7,11.5c0.5,1.5,0.6,3.3,0.8,5.4c0.1,0.6-0.2,3.3-0.3,3.9c-0.1,0.8,0.7,0,1.9-0.2
	c3.5-0.7,8.1-1.2,10.2-0.9c2.7,0.4,9,3.6,10.1-0.4c0.6-2.3-3.3-6.8-3.8-8.8c-0.8-3.2,1.4-7.4,4-8.2c4.2-1.3,11.3,0.4,12.1,5.4
	c0.3,1.8,0.1,4.2-0.5,5.4c-1.8,3.3-5,4.6-3.9,6.4c2.2,3.7,14.3,4.1,17.8,3.7c0.9-0.1,1.8-0.3,2.7-0.5c1.2-0.4,2-0.2,2.1-1.4
	l-0.2-17.3c0-1.2,0-1.4-0.7-2.1c-1.5-1.3-3.8-2.2-4.7-2c-1.5,0.3-2.9,2.2-4.8,2.8c-4.1,1.4-8.9-1.7-9.7-5.5
	c-1.1-5.5,1.6-9.3,6.9-10.3c0.8-0.2,1.5-0.2,2.2,0c2,0.6,4.6,2.9,6.7,3.5c2.9,0.7,6.2-1.1,6.8-3.3c1.1-3.5-0.8-9.8-2.2-14.7
	c-0.3-1.2-0.5-1.3-1.7-1.2c-8.7,0.5-21.7,1.4-23.3-7.3c-0.2-1.1,0-2.1,0.5-3.2c1.1-2.2,3.7-4.5,4.3-6.9c0.7-2.9-0.1-5.8-2.5-7.3
	c-3.1-1.8-6.9-1.9-10.4,0.2c-2.3,1.4-3.1,6.2-1.4,9c0.6,1,1.7,1.9,2.4,2.8c2.9,4-0.3,9-4.7,10.9c-0.4,0.2-0.9,0.3-1.4,0.4
	C282.5,46.6,282.3,46.6,281,46.6L281,46.6z"/>
<linearGradient id="SVGID_2_" gradientUnits="userSpaceOnUse" x1="331.7126" y1="230.5963" x2="412.9097" y2="230.5963" gradientTransform="matrix(0.9467 0.322 -0.322 0.9467 60.8586 -266.5188)">
	<stop  offset="0" style="stop-color:#FFEBA9"/>
	<stop  offset="0.5" style="stop-color:#FECC00"/>
	<stop  offset="1" style="stop-color:#F8AE00"/>
</linearGradient>
<path class="st1" d="M338.4,59.4c0,0,0,0,0.3-0.6c0.2-0.4,0.4-0.8,0.7-1.2c1-1.2,3.3-2.1,4-3.1c0.9-1.3,0.1-3-1.2-4.1
	c-4.7-4.2-8.2-4.6-15.9-6.2c-1-0.2-1.6-0.2-1.7,0.8c-0.7,6.8,0,13.3-4.5,14.7c-1.6,0.5-3.5,0.2-5.2-0.5c-1.9-0.8-3.4-3.3-5-4.5
	c-1.9-1.4-5.1-1-6.6,0.1c-4.2,3.2-3,8,1.2,10.2c0.6,0.3,1.2,0.7,1.8,0.6c1.7-0.1,3.9-1.4,5.6-0.9c1.1,0.3,3.2,1.9,3.7,4
	c0.1,0.3,0,1.3,0,1.5c0,0.4-0.2,0.6-0.9,2.9l-1.7,4.4c-0.2,0.5-1.3,3.4-1.3,4l-1.1,3.1c-0.2,1,1.5,0.9,2.4,1.2l14.6,4.5
	c1,0.3,1.2,0.3,1.6,0.1c2.1-1.3,0.6-3.8-0.2-6.4c-1.1-3.7,0.8-6.9,4.5-8.2c4.4-1.6,9.1,0.8,10.3,5.7c0.2,1.1-0.3,3.3-0.8,4.3
	c-0.4,1-1.5,1.8-2.9,2.5c-1.1,0.5-2.2,1.1-3,1.7c-2.8,2.4,0.6,5.4,3.8,7c2.3,1.1,4.4,1.7,5.9,2.1c1.8,0.5,5.9,1.6,7.1,0.7
	c0.8-0.6,2.2-4.6,2.4-5.8c1.1-4.9,0.1-10,3.6-12.8c1.8-1.4,6-1.7,7.6,0.1c0.9,1,1.3,2.9,2.3,3.8c1.4,1.2,5.7,0.9,7.3-0.4
	c1.1-0.9,1.8-3.9,1.1-5.7c-0.4-1-2.5-3.1-3.3-3.4c-1.5-0.6-4.3,0.5-6.4,0.4c-1.8-0.1-5.8-2-6.2-4.1c-0.2-1.1,0.7-3.6,1.2-4.9
	c1.1-2.7,2.6-5.4,4-8c0.5-0.9,0.4-1.1-0.5-1.5l-11.4-5c-1-0.4-1.1-0.5-1.8-0.3c-0.5,0.1-0.9,0.3-1.3,0.6c-0.7,0.5-1.8,2.4-1.8,3.3
	c-0.1,2.4,1.4,5.3,1.5,7.5c0,2.7-2.7,5.2-5.7,5.4c-3.8,0.2-8-1.7-8.5-5.5c-0.1-0.9,0-2,0.2-3C338.2,59.5,338.2,59.7,338.4,59.4
	L338.4,59.4z"/>
<linearGradient id="SVGID_3_" gradientUnits="userSpaceOnUse" x1="20.4837" y1="314.4684" x2="68.5932" y2="314.4684" gradientTransform="matrix(0.9465 0.3227 -0.3227 0.9465 92.302 -241.7477)">
	<stop  offset="0" style="stop-color:#DAE5A7"/>
	<stop  offset="0.5" style="stop-color:#B8D26E"/>
	<stop  offset="1" style="stop-color:#7FB525"/>
</linearGradient>
<path class="st2" d="M25.7,55.1l-9-3.1c-1-0.3-1.1-0.3-1.6,0.6c-0.7,1.3-6.2,9.9-5,12.7c0.8,1.8,4.3,3.4,6.1,3
	c0.5-0.1,2.1-0.8,2.8-0.7c3.9,0.4,6,3.8,6.4,4.8c0.7,1.9-0.1,4.5-1.2,5.7c-1.7,1.7-5.9,2-7.9,0.9c-1.5-0.8-2.3-3.8-3.6-4.5
	c-3-1.8-5.4,0.2-6,0.7c-1.3,1.1-2.4,4.1-2.6,9.2c-0.1,1.3-0.4,2.8-0.8,4.4c-0.1,0.5-1,2.6-1.3,3c-0.3,0.6,0.5,0.2,1.5,0.3
	c2.9,0.4,6.7,1.2,8.3,2c2.1,1,6.1,5.3,8.1,2.4c1.1-1.6-0.8-6.2-0.6-7.9c0.2-2.8,3.1-5.5,5.4-5.4c3.7,0.1,8.9,3.4,8.1,7.5
	c-0.3,1.5-1,3.4-1.8,4.1c-2.3,2.2-5.2,2.3-4.8,4c0.8,3.5,10.2,7.1,13.1,7.7c0.8,0.2,1.5,0.3,2.3,0.3c1,0,1.7,0.4,2-0.6l4.5-13.7
	c0.4-1,0.4-1.1,0-1.8c-0.8-1.5-2.4-2.7-3.1-2.8c-1.3-0.1-2.9,1-4.5,1c-3.6,0-6.6-3.7-6.2-6.9c0.6-4.7,3.8-6.9,8.3-6.3
	c0.7,0.1,1.2,0.2,1.8,0.6c1.5,1,2.8,3.6,4.4,4.6c2.1,1.4,5.1,0.8,6.3-0.7c1.8-2.5,2-8,2.3-12.2c0.1-1,0-1.2-1-1.4
	c-7-1.9-17.5-4.7-16.4-12.1c0.1-0.9,0.5-1.7,1.2-2.4c1.4-1.4,4.1-2.6,5.2-4.3c1.3-2.1,1.5-4.6,0-6.4c-2-2.3-5-3.4-8.3-2.7
	c-2.2,0.5-4.1,4-3.5,6.7c0.2,1,0.8,1.9,1.1,2.9c1.2,4-2.7,7-6.7,7.3c-0.4,0-0.8,0-1.2-0.1C26.8,55.5,26.7,55.4,25.7,55.1L25.7,55.1z
	"/>
<linearGradient id="SVGID_4_" gradientUnits="userSpaceOnUse" x1="423.3613" y1="332.6569" x2="463.0692" y2="332.6569" gradientTransform="matrix(0.8457 0.5336 -0.5336 0.8457 187.3962 -429.078)">
	<stop  offset="0" style="stop-color:#8477B5"/>
	<stop  offset="0.5" style="stop-color:#6A5BA4"/>
	<stop  offset="1" style="stop-color:#4A358B"/>
</linearGradient>
<path class="st3" d="M391,70.8l-12.1-7c-0.7-0.4-0.8-0.4-1.3,0.3l-7.8,12.3c-0.5,0.7-0.5,0.9-0.6,1.1c-0.3,1.2,0.5,2.1,1.2,2.7
	c0.5,0.4,1,0.9,1.6,1c0.9,0.1,1.9-0.6,3-0.7c2.3-0.1,4.2,2.2,4.9,4.5c1.2,3.5-2,6.9-5.7,6.5c-1.1-0.1-2.3-0.6-2.9-1.3
	c-1.9-2.1-2.8-8.1-5.9-6.4c-1.7,1-5.8,6.8-6.6,9.4c-0.3,0.8-0.2,1,0.6,1.4c5.4,2.5,11,4.9,12.8,9.4c0.6,1.5,0.7,3-0.9,3.9
	c-0.8,0.4-1.8,0.5-2.7,0.9c-3.3,1.5-3.6,5.8-1.4,7.9c1.9,1.8,4.2,2.4,6.6,1.5c0.8-0.3,1.6-1.1,1.8-1.8c0.5-1.7-0.1-4.7,0.5-6.7
	c0.7-2.3,3.4-3.7,5.2-3.2c0.9,0.3,6.1,4.4,9.1,6.7c0.7,0.5,0.8,0.5,1.5-0.1c2.3-2,6.7-8.1,5.9-11.6c-0.4-2-2.8-1.5-5.8-2.7
	c-2.9-1.2-4.3-3.8-3-6.7c0.6-1.4,2-2.4,3.5-3c0.7-0.2,3,0.1,3.5,0.4c3.5,3,2.9,8,7,6c0.6-0.3,0.7-0.4,1.1-1.2l5.3-10
	c0.4-0.8,0.4-0.9-0.5-1.1c-4-1.2-13-6.1-11.9-10.6c0.3-1,1.3-1.8,2.8-2.1c2.5-0.6,3.9-0.6,5-3c1.1-2.5-0.4-5.6-2.6-6.7
	c-2.8-1.3-4-0.8-5.9,0.5c-1.4,0.9-2.1,1.5-2,3.6c0.2,2,1.3,5.9-2,6.3C391.9,71.2,391.8,71.2,391,70.8L391,70.8z"/>
<linearGradient id="SVGID_5_" gradientUnits="userSpaceOnUse" x1="310.1798" y1="275.9803" x2="390.1096" y2="275.9803" gradientTransform="matrix(0.9115 0.4113 -0.4113 0.9115 109.5612 -309.8691)">
	<stop  offset="1.123600e-02" style="stop-color:#44AFCD"/>
	<stop  offset="0.5" style="stop-color:#008EB4"/>
	<stop  offset="0.9944" style="stop-color:#00747D"/>
</linearGradient>
<path class="st4" d="M298.6,64.2l-5.1,13.7c-0.4,1-0.4,1.1-0.6,1.4c-1.1,1.2-3.5,1.4-4.1,1.2c-0.8-0.3-1.7-0.8-2.5-1.6
	c-1.8-1.7-2.9-4.1-4.3-5.1c-1.7-1.1-5.8,0.5-6.7,3.5c-0.9,3.1,0.9,5.6,3.9,6.4c3.9,1,6.6-0.1,8,2.5c2.1,3.9-2.2,12.8-4.9,15.9
	c-0.7,0.8-0.7,0.9,0.3,1.4l9.2,4.2c1,0.4,1.1,0.5,1.5,0.6c1.4,0.4,4.7-0.6,5.1-0.9c1-0.6,2.4-2.7,2.5-3.8c0.1-1.3-1-2.8-1.2-4.3
	c-0.4-3.2,2.6-6.7,4.9-7.2c3-0.8,9.1,1.6,10.3,5.4c0.7,2.1-0.8,6.4-2.9,7.7c-0.9,0.5-2.1,0.7-3,1.1c-3.3,1.6-3.5,5.8-1.4,8.4
	c2.5,3.1,9.9,6.1,14,7.6c1,0.4,1.2,0.3,1.5-0.7c0.8-2.3,1.7-5,2.7-6.7c0.3-0.5,0.7-1.5,1.4-2.5c1.4-2,2.5-5,5.3-4.2
	c2,0.5,2.6,2.5,4.5,5.3c1.9,2.7,5,4,8,1.9c1.6-1.1,2.6-3.8,2.1-5.7c-0.7-2.5-3.9-5.4-6.6-4.9c-1.2,0.2-2.2,1.3-3.2,1.3
	c-0.5,0-3-1.3-3.7-2.1c-0.2-0.3-1-1.7-1-2.5c0-0.4,0-0.5,0.5-1.5l7.4-16.4c0.4-1,0.4-1.1-0.7-1.2c-5.1-0.6-16.1-5.8-16.4-10.7
	c0-0.6,0.2-1.2,0.8-1.7c1.4-1.2,4.6-2.3,5.9-3.8c1.7-2,1.6-4.7-0.3-6.7c-2.4-2.6-5.5-3.8-7.9-2.7c-0.9,0.4-2.6,2.3-2.8,3.1
	c-1,4,1.4,7.7-0.4,9.6c-1.7,1.9-3.9,1.1-5.9-0.6c-4-3.4-5.7-4.6-12.2-5.7c-0.3-0.1-0.7-0.1-1-0.1C299.1,63.1,299,63.2,298.6,64.2
	L298.6,64.2z"/>
<linearGradient id="SVGID_6_" gradientUnits="userSpaceOnUse" x1="381.6737" y1="61.0102" x2="451.8098" y2="61.0102">
	<stop  offset="0" style="stop-color:#F3944C"/>
	<stop  offset="0.5" style="stop-color:#ED6D05"/>
	<stop  offset="1" style="stop-color:#D25917"/>
</linearGradient>
<path class="st5" d="M421.9,48.2c0,0,0,0,0.6-0.5c0.4-0.3,0.8-0.6,1.3-0.8c1.6-0.7,4.3-0.4,5.6-1.1c1.5-0.8,1.5-2.9,0.8-4.7
	c-2.6-6.5-5.8-8.7-12.7-14.1c-0.9-0.7-1.5-1-2.1,0c-4,6.4-6.6,13.2-11.8,12.3c-1.9-0.3-3.6-1.6-4.9-3.1c-1.5-1.8-1.7-5-2.7-7
	c-1.1-2.4-4.6-3.6-6.6-3.2c-5.8,1.1-6.9,6.5-3.8,10.7c0.4,0.6,0.8,1.2,1.5,1.5c1.7,0.7,4.6,0.6,6,1.9c1,0.9,2.2,3.5,1.7,5.8
	c-0.1,0.3-0.6,1.3-0.8,1.5c-0.2,0.3-0.5,0.5-2.4,2.5l-3.9,3.6c-0.4,0.4-2.9,2.7-3.3,3.3l-2.6,2.6c-0.6,0.9,1,1.6,1.7,2.4l12.3,11.7
	c0.8,0.8,1,0.9,1.5,0.8c2.8-0.3,2.5-3.4,3-6.4c0.7-4.2,4.2-6.5,8.6-5.9c5.2,0.6,8.7,5.3,7.4,10.8c-0.3,1.2-1.9,3.1-2.9,3.9
	c-0.9,0.7-2.4,1-4.1,1c-1.3,0-2.7,0-3.8,0.3c-4,1-2.1,5.7,0.3,8.8c1.7,2.2,3.6,3.9,4.8,5c1.5,1.4,5,4.5,6.7,4.2
	c1.1-0.2,4.4-3.5,5.3-4.5c3.6-4.3,5.1-9.9,10-10.9c2.5-0.5,6.8,1.3,7.5,3.9c0.4,1.5-0.1,3.6,0.4,5c0.8,1.9,5.2,3.7,7.4,3.2
	c1.6-0.4,3.7-3,3.9-5.1c0.1-1.2-0.9-4.3-1.6-5c-1.2-1.3-4.5-1.6-6.6-2.8c-1.8-1-4.7-4.9-4.1-7.2c0.3-1.2,2.5-3.2,3.6-4.2
	c2.4-2.1,5.2-4.1,7.9-6c1-0.7,1-0.9,0.2-1.8l-8.9-10.7c-0.7-0.9-0.9-1-1.6-1.2c-0.5-0.1-1.1-0.1-1.6-0.1c-0.9,0.1-3,1.5-3.5,2.4
	c-1.3,2.3-1.2,6-2.3,8.2c-1.3,2.7-5.3,3.8-8.4,2.5c-3.9-1.6-7.1-5.6-5.7-9.6c0.3-1,1-2,1.7-2.9C421.7,48.3,421.6,48.4,421.9,48.2
	L421.9,48.2z"/>
<linearGradient id="SVGID_7_" gradientUnits="userSpaceOnUse" x1="405.012" y1="69.9545" x2="450.9162" y2="69.9545" gradientTransform="matrix(-0.7071 0.7071 -0.7071 -0.7071 812.3257 -135.61)">
	<stop  offset="0" style="stop-color:#D870A9"/>
	<stop  offset="0.5" style="stop-color:#C8007F"/>
	<stop  offset="1" style="stop-color:#A11880"/>
</linearGradient>
<path class="st6" d="M463.8,125.9c0,0,0,0,0,0.5c0,0.3-0.1,0.6-0.2,1c-0.4,1.1-1.8,2.2-2.1,3.1c-0.3,1.1,0.6,2.1,1.8,2.5
	c4.2,1.8,6.7,1.3,12.4,0.6c0.8-0.1,1.2-0.2,1-1c-1.1-4.8-3.1-9.1-0.2-11.2c1-0.7,2.4-0.9,3.7-0.8c1.5,0.1,3.1,1.5,4.5,2
	c1.6,0.6,3.8-0.5,4.5-1.6c2.2-3.2,0.2-6.2-3.2-6.7c-0.5-0.1-1-0.2-1.4,0c-1.1,0.5-2.4,1.9-3.7,1.9c-0.9,0-2.7-0.6-3.4-1.9
	c-0.1-0.2-0.3-0.9-0.4-1.1c-0.1-0.3,0-0.5-0.1-2.2l0.1-3.5c0-0.4,0.1-2.6,0-3l0-2.4c-0.1-0.7-1.2-0.3-1.9-0.3l-11.1,0.3
	c-0.8,0-0.9,0-1.1,0.3c-1.2,1.4,0.4,2.7,1.6,4.4c1.6,2.3,1.1,5-1.2,6.7c-2.7,2.1-6.5,1.5-8.4-1.6c-0.4-0.7-0.6-2.3-0.5-3.2
	c0.1-0.8,0.7-1.6,1.4-2.4c0.6-0.6,1.3-1.2,1.7-1.9c1.4-2.3-1.6-3.6-4.2-3.9c-1.8-0.2-3.4-0.1-4.5-0.1c-1.3,0.1-4.4,0.2-5.1,1.2
	c-0.4,0.6-0.4,3.7-0.4,4.6c0.3,3.7,2.2,6.9,0.4,9.7c-0.9,1.4-3.8,2.5-5.2,1.6c-0.8-0.5-1.6-1.7-2.5-2.1c-1.2-0.5-4.1,0.7-4.9,1.9
	c-0.6,0.9-0.3,3.1,0.6,4.2c0.5,0.6,2.4,1.6,3.1,1.6c1.1,0.1,2.8-1.3,4.4-1.8c1.3-0.4,4.5,0.1,5.2,1.4c0.4,0.7,0.3,2.7,0.3,3.6
	c-0.1,2.1-0.5,4.3-0.9,6.5c-0.1,0.8-0.1,0.9,0.7,0.9l9,0.8c0.8,0.1,0.9,0,1.3-0.2c0.3-0.2,0.6-0.4,0.8-0.7c0.4-0.5,0.7-2.1,0.5-2.7
	c-0.5-1.7-2.2-3.3-2.7-4.9c-0.6-1.9,0.7-4.2,2.7-5.1c2.5-1,5.9-0.7,7.1,1.8c0.3,0.6,0.4,1.4,0.5,2.1
	C463.8,125.7,463.8,125.6,463.8,125.9L463.8,125.9z"/>
<linearGradient id="SVGID_8_" gradientUnits="userSpaceOnUse" x1="460.4538" y1="74.4746" x2="493.7991" y2="74.4746">
	<stop  offset="0" style="stop-color:#FFEBA9"/>
	<stop  offset="0.5" style="stop-color:#FECC00"/>
	<stop  offset="1" style="stop-color:#F8AE00"/>
</linearGradient>
<path class="st7" d="M481.6,62.3l-7.9-4.6c-0.5-0.3-0.6-0.2-0.8,0.2l-5.1,8c-0.3,0.5-0.3,0.6-0.4,0.7c-0.2,0.8,0.3,1.4,0.8,1.8
	c0.3,0.3,0.7,0.6,1,0.6c0.6,0.1,1.3-0.4,2-0.4c1.5,0,2.7,1.5,3.2,2.9c0.8,2.3-1.3,4.5-3.7,4.2c-0.7-0.1-1.5-0.4-1.9-0.9
	c-1.3-1.4-1.8-5.3-3.8-4.2c-1.1,0.6-3.8,4.4-4.4,6.2c-0.2,0.6-0.1,0.6,0.4,0.9c3.5,1.6,7.2,3.2,8.4,6.2c0.4,1,0.5,2-0.6,2.6
	c-0.5,0.3-1.2,0.3-1.8,0.6c-2.1,1-2.4,3.8-1,5.2c1.2,1.2,2.7,1.6,4.3,1c0.5-0.2,1.1-0.7,1.2-1.2c0.4-1.1-0.1-3.1,0.3-4.4
	c0.5-1.5,2.2-2.4,3.4-2.1c0.6,0.2,4,2.9,6,4.4c0.5,0.4,0.6,0.3,1,0c1.5-1.3,4.4-5.3,3.9-7.6c-0.3-1.3-1.8-1-3.8-1.8
	c-1.9-0.8-2.8-2.5-2-4.4c0.4-0.9,1.3-1.6,2.3-1.9c0.4-0.2,2,0,2.3,0.3c2.3,2,1.9,5.2,4.6,4c0.4-0.2,0.5-0.3,0.7-0.8l3.5-6.6
	c0.3-0.5,0.2-0.6-0.3-0.8c-2.6-0.8-8.5-4-7.8-6.9c0.2-0.7,0.8-1.1,1.9-1.4c1.6-0.4,2.6-0.4,3.3-2c0.7-1.7-0.2-3.7-1.7-4.4
	c-1.8-0.9-2.6-0.5-3.9,0.3c-0.9,0.6-1.4,1-1.3,2.3c0.1,1.3,0.8,3.9-1.3,4.1C482.2,62.7,482.1,62.6,481.6,62.3L481.6,62.3z"/>
<linearGradient id="SVGID_9_" gradientUnits="userSpaceOnUse" x1="209.9191" y1="-258.3251" x2="305.1489" y2="-258.3251" gradientTransform="matrix(0.7983 -0.6023 0.6023 0.7983 37.7065 471.7846)">
	<stop  offset="0" style="stop-color:#47C1F0"/>
	<stop  offset="0.5" style="stop-color:#00A0E4"/>
	<stop  offset="1" style="stop-color:#008CD3"/>
</linearGradient>
<path class="st8" d="M55.7,115.5l11.4,13.2c0.8,1,0.9,1.1,1.1,1.4c0.6,1.8-0.6,4.5-1.1,5c-0.7,0.7-1.9,1.3-3.1,1.7
	c-2.8,0.9-6,0.6-7.8,1.6c-2.2,1.1-2.8,6.4-0.2,8.9c2.7,2.7,6.4,2.3,8.9-0.4c3.3-3.5,3.7-6.9,7.2-6.9c5.2,0.1,12.1,9.6,13.8,14.2
	c0.5,1.2,0.6,1.2,1.6,0.5l9.6-7.2c1-0.8,1.2-0.9,1.5-1.3c1.2-1.3,2-5.3,2-5.9c-0.1-1.4-1.4-4.1-2.5-4.7c-1.4-0.8-3.5-0.6-5.2-1.2
	c-3.5-1.4-5.5-6.6-4.7-9.3c1-3.6,6.9-8.6,11.5-7.7c2.6,0.5,6.3,4.5,6.4,7.4c0.1,1.2-0.5,2.5-0.5,3.8c-0.2,4.4,4,7,8,6.3
	c4.7-0.8,12-6.8,15.9-10.2c0.9-0.8,1-1,0.1-2c-1.9-2.2-4.2-4.6-5.4-6.7c-0.3-0.6-1.1-1.6-1.8-3c-1.3-2.6-3.8-5.4-1.3-8
	c1.7-1.8,4-1.2,8.1-1.7c3.9-0.5,7-2.9,6.5-7.3c-0.3-2.2-2.5-4.9-4.7-5.4c-3.1-0.7-7.9,1-8.9,4.1c-0.4,1.4,0.1,3.1-0.4,4.1
	c-0.3,0.6-3,2.4-4.3,2.6c-0.4,0.1-2.4,0.1-3.2-0.3c-0.4-0.2-0.5-0.3-1.3-1.3L99.8,82.8c-0.8-1-0.9-1-1.7,0
	c-3.5,4.9-15.3,13.5-20.6,11.1c-0.7-0.3-1.1-0.9-1.3-1.7c-0.5-2.1,0.3-6.1-0.6-8.4c-1.1-3-4.1-4.3-7.2-3.6c-4.2,1-7.1,3.5-7.3,6.8
	c-0.1,1.2,0.9,4,1.7,4.7c3.6,3.3,8.8,2.9,9.8,5.9c1,2.9-1.1,4.7-4,5.8c-5.9,2.3-8,3.3-13,9.5c-0.2,0.3-0.5,0.6-0.6,1
	C54.8,114.4,54.9,114.5,55.7,115.5L55.7,115.5z"/>
<linearGradient id="SVGID_10_" gradientUnits="userSpaceOnUse" x1="0" y1="44.0446" x2="82.6636" y2="44.0446">
	<stop  offset="0" style="stop-color:#ED70A8"/>
	<stop  offset="0.5" style="stop-color:#E5007D"/>
	<stop  offset="1" style="stop-color:#CF007F"/>
</linearGradient>
<path class="st9" d="M39.5,30.7c0,0,0,0,0.3-0.6c0.2-0.4,0.4-0.9,0.7-1.3c1-1.3,3.4-2.3,4.1-3.5c0.9-1.4-0.1-3.1-1.4-4.2
	c-5.1-4.2-8.8-4.5-17-5.8c-1.1-0.2-1.2-0.1-1.3,1c-0.4,7.2,0.2,13.9-4.5,15.5c-1.7,0.6-3.9,0.7-5.5-0.3c-1.9-1.2-3.7-4.2-5.4-5.1
	c-2-1.1-5.5-0.4-7,0.9c-4,3.8-2.7,8.6,1.7,10.6c0.7,0.3,1.3,0.6,1.9,0.6c1.7-0.2,4.1-1.6,5.9-1.2c1.2,0.3,3.8,2.3,4.3,4.5
	c0.1,0.3,0.1,0.6,0.1,0.8c0,0.4-0.1,0.5-0.5,1.6l-2.2,6.6c-0.2,0.5-1.2,3.6-1.2,4.2l-1,3.3c-0.1,1,1.6,0.9,2.5,1.1l15.6,4.1
	c1.1,0.3,1.2,0.3,1.6,0c2.2-1.5,0.5-4-0.5-6.7c-1.3-3.8,0.5-7.3,4.4-8.9c4.6-1.8,9.9,0.5,10.8,5.7c0.2,1.3,0.1,3.5-0.4,4.4
	c-1,1.7-4.4,3-6,4.7c-4.5,4.7,6.5,8.1,10.5,9c1.9,0.4,6.2,1.4,7.5,0.4c0.9-0.7,2.1-4.9,2.3-6.2c1-5.2-0.3-10.5,3.2-13.6
	c1.8-1.6,6.2-2,8-0.2c1,1,1.5,3,2.6,3.9c1.5,1.2,6,0.7,7.6-0.7c1.1-1,1.7-4.2,0.9-6c-0.5-1-2.8-3.1-3.6-3.4
	c-1.5-0.5-4.4,0.7-6.8,0.7c-1.9,0-6.2-1.9-6.7-4.1c-0.3-1.1,0.6-3.8,1.1-5.2c1-2.8,2.5-5.8,3.8-8.6c0.5-1,0.4-1.2-0.6-1.6l-12.2-4.7
	c-1-0.4-1.2-0.4-1.9-0.2c-0.5,0.1-1,0.4-1.4,0.7c-0.7,0.5-1.8,2.6-1.8,3.6c0,2.5,1.7,5.5,1.9,7.9c0.1,2.8-2.6,5.6-5.8,6
	c-3.9,0.4-8.5-1.4-9.2-5.4C39,34.2,39.1,33,39.2,32C39.4,30.9,39.4,31.1,39.5,30.7L39.5,30.7z"/>
<linearGradient id="SVGID_11_" gradientUnits="userSpaceOnUse" x1="617.3712" y1="-114.3706" x2="646.0187" y2="-114.3706" gradientTransform="matrix(0.6899 -0.7239 0.7239 0.6899 41.3729 645.7853)">
	<stop  offset="0" style="stop-color:#47C1F0"/>
	<stop  offset="0.5" style="stop-color:#00A0E4"/>
	<stop  offset="1" style="stop-color:#008CD3"/>
</linearGradient>
<path class="st10" d="M384.4,109.8l-3.9,4.1c-0.4,0.4-0.4,0.5-0.1,1c0.5,0.7,3.8,5.8,5.6,5.9c1.2,0,2.9-1.5,3.2-2.5
	c0.1-0.3,0.1-1.3,0.3-1.7c1.2-2,3.5-2.3,4.2-2.3c1.2,0.1,2.4,1.2,2.8,2.1c0.5,1.4-0.4,3.7-1.5,4.5c-0.8,0.6-2.6,0.3-3.3,0.8
	c-1.7,1.2-1.2,3-1.1,3.4c0.2,1,1.6,2.3,4.4,3.7c0.7,0.4,1.4,0.9,2.2,1.6c0.2,0.2,1.1,1.2,1.3,1.4c0.3,0.3,0.2-0.2,0.6-0.8
	c1-1.5,2.3-3.3,3.2-4c1.1-0.9,4.4-2,3.3-3.8c-0.6-1-3.6-1.1-4.5-1.6c-1.5-0.8-2.2-3-1.6-4.3c1-2,4-3.9,6.1-2.5
	c0.8,0.5,1.6,1.4,1.8,2c0.6,1.8-0.1,3.4,1,3.6c2.1,0.5,6.4-3.7,7.4-5.1c0.3-0.4,0.5-0.7,0.7-1.1c0.3-0.5,0.6-0.8,0.2-1.2l-6.3-5.9
	c-0.4-0.4-0.5-0.5-1-0.4c-1,0.1-2.1,0.6-2.3,1c-0.4,0.6-0.2,1.8-0.6,2.7c-0.9,1.9-3.7,2.6-5.3,1.6c-2.4-1.5-2.8-3.8-1.3-6
	c0.2-0.3,0.4-0.6,0.8-0.8c0.9-0.5,2.6-0.6,3.6-1.2c1.3-0.8,1.7-2.6,1.2-3.6c-0.9-1.6-3.8-3.1-6-4.3c-0.5-0.3-0.6-0.3-1,0.2
	c-2.8,3.3-6.9,8.3-10.6,5.9c-0.5-0.3-0.8-0.7-1-1.3c-0.4-1.1-0.4-2.9-1-3.9c-0.8-1.2-2.1-2-3.5-1.6c-1.7,0.5-3.1,1.8-3.5,3.8
	c-0.3,1.3,1.1,3.2,2.8,3.6c0.6,0.1,1.3,0,1.8,0.1c2.4,0.4,3.1,3.2,2.3,5.4c-0.1,0.2-0.2,0.4-0.3,0.6
	C384.9,109.2,384.8,109.3,384.4,109.8L384.4,109.8z"/>
<linearGradient id="SVGID_12_" gradientUnits="userSpaceOnUse" x1="189.0285" y1="89.6771" x2="245.8964" y2="89.6771">
	<stop  offset="0" style="stop-color:#DAE5A7"/>
	<stop  offset="0.5" style="stop-color:#B8D26E"/>
	<stop  offset="1" style="stop-color:#7FB525"/>
</linearGradient>
<path class="st11" d="M203.5,75.5h-11.2c-1.2,0-1.4,0.1-1.6,1.3c-0.3,1.7-3.1,13.4-0.8,16.1c1.6,1.8,6.1,2.2,7.9,1.1
	c0.5-0.3,2-1.6,2.9-1.8c4.5-1,8.1,1.9,9,2.9c1.6,1.8,1.7,5.1,0.8,6.9c-1.3,2.6-5.8,4.5-8.5,4c-2-0.3-4-3.4-5.7-3.7
	c-4-0.8-6,2.3-6.5,3.1c-1.1,1.7-1.1,5.4,0.7,11.3c0.4,1.5,0.6,3.3,0.7,5.3c0.1,0.6-0.2,3.3-0.3,3.9c-0.1,0.8,0.7,0,1.9-0.2
	c3.4-0.7,8-1.2,10.1-0.9c2.7,0.4,8.9,3.6,10-0.4c0.6-2.2-3.2-6.7-3.7-8.7c-0.8-3.2,1.3-7.3,3.9-8.1c4.1-1.3,11.2,0.4,11.9,5.3
	c0.3,1.8,0.2,4.1-0.5,5.3c-1.8,3.3-5,4.6-3.9,6.3c2.2,3.7,14.1,4.1,17.6,3.6c0.9-0.1,1.8-0.3,2.6-0.5c1.2-0.4,2-0.2,2.1-1.4
	l-0.2-17.1c0-1.2,0-1.4-0.7-2c-1.5-1.3-3.7-2.2-4.6-2c-1.5,0.3-2.9,2.2-4.7,2.8c-4,1.4-8.8-1.6-9.6-5.4c-1.1-5.4,1.6-9.1,6.8-10.2
	c0.8-0.2,1.4-0.2,2.2,0c2,0.5,4.5,2.9,6.6,3.4c2.9,0.7,6.1-1,6.8-3.2c1.1-3.5-0.8-9.7-2.1-14.5c-0.3-1.2-0.5-1.3-1.7-1.2
	c-8.5,0.5-21.4,1.4-22.9-7.2c-0.2-1.1,0-2.1,0.5-3.1c1.1-2.2,3.6-4.5,4.2-6.8c0.7-2.8-0.1-5.8-2.5-7.2c-3.1-1.8-6.8-1.9-10.3,0.2
	c-2.2,1.4-3.1,6.1-1.4,8.9c0.6,1,1.7,1.9,2.3,2.8c2.8,4-0.3,8.9-4.7,10.7c-0.4,0.2-0.9,0.3-1.4,0.4
	C204.9,75.5,204.7,75.5,203.5,75.5L203.5,75.5z"/>
<linearGradient id="SVGID_13_" gradientUnits="userSpaceOnUse" x1="357.5824" y1="-10.864" x2="389.0776" y2="-10.864" gradientTransform="matrix(-0.7071 0.7071 -0.7071 -0.7071 757.896 -135.2633)">
	<stop  offset="0" style="stop-color:#F3944C"/>
	<stop  offset="0.5" style="stop-color:#ED6D05"/>
	<stop  offset="1" style="stop-color:#D25917"/>
</linearGradient>
<path class="st12" d="M512.6,136.5l4.4-4.4c0.5-0.5,0.5-0.6,0.1-1.1c-0.6-0.8-4-6.5-6-6.6c-1.3-0.1-3.2,1.5-3.5,2.7
	c-0.1,0.3-0.2,1.4-0.4,1.8c-1.3,2.2-3.9,2.4-4.7,2.4c-1.3-0.1-2.6-1.4-3-2.4c-0.5-1.5,0.5-4,1.8-4.9c0.9-0.7,2.9-0.2,3.7-0.8
	c1.9-1.2,1.4-3.2,1.3-3.7c-0.2-1.1-1.7-2.6-4.7-4.2c-0.8-0.4-1.5-1.1-2.4-1.8c-0.3-0.2-1.2-1.4-1.4-1.6c-0.3-0.3-0.3,0.3-0.6,0.8
	c-1.1,1.6-2.7,3.6-3.6,4.3c-1.2,0.9-4.9,2.1-3.8,4c0.6,1.1,3.9,1.3,4.9,1.9c1.6,0.9,2.3,3.4,1.6,4.7c-1.1,2.1-4.5,4.2-6.7,2.6
	c-0.8-0.6-1.7-1.6-1.9-2.3c-0.6-2,0.2-3.7-1-4c-2.3-0.6-7.1,3.9-8.3,5.5c-0.3,0.4-0.6,0.8-0.8,1.2c-0.3,0.6-0.7,0.9-0.2,1.4l6.8,6.6
	c0.5,0.5,0.6,0.5,1.1,0.5c1.1-0.1,2.3-0.6,2.6-1c0.5-0.7,0.3-2,0.7-2.9c1.1-2.1,4.1-2.8,5.9-1.6c2.5,1.7,2.9,4.2,1.3,6.7
	c-0.2,0.4-0.5,0.6-0.9,0.9c-1,0.6-2.9,0.6-3.9,1.3c-1.4,0.9-2,2.8-1.4,3.9c0.9,1.8,4.1,3.5,6.5,4.8c0.6,0.3,0.7,0.3,1.1-0.2
	c3.1-3.5,7.8-8.9,11.8-6.1c0.5,0.4,0.8,0.8,1,1.4c0.4,1.3,0.3,3.2,1,4.3c0.8,1.4,2.3,2.2,3.8,1.8c1.9-0.5,3.4-1.9,4-4.1
	c0.3-1.4-1.2-3.6-2.9-4c-0.6-0.2-1.4-0.1-2-0.2c-2.7-0.5-3.4-3.6-2.4-6c0.1-0.2,0.2-0.5,0.4-0.7C512.1,137.1,512.1,137,512.6,136.5
	L512.6,136.5z"/>
<linearGradient id="SVGID_14_" gradientUnits="userSpaceOnUse" x1="213.0647" y1="79.9616" x2="300.853" y2="79.9616">
	<stop  offset="0" style="stop-color:#FFEBA9"/>
	<stop  offset="0.5" style="stop-color:#FECC00"/>
	<stop  offset="1" style="stop-color:#F8AE00"/>
</linearGradient>
<path class="st13" d="M251.9,67.6c0,0,0,0,0.1-0.7c0.1-0.5,0.1-1,0.3-1.4c0.6-1.6,2.6-3.3,3-4.6c0.5-1.6-0.9-3.1-2.6-3.8
	c-6.2-2.6-10-1.9-18.4-0.8c-1.1,0.1-1.7,0.3-1.4,1.5c1.7,7.2,4.6,13.6,0.5,16.6c-1.5,1.1-3.5,1.4-5.5,1.3c-2.2-0.2-4.6-2.2-6.7-2.9
	c-2.4-0.8-5.6,0.7-6.7,2.4c-3.2,4.7-0.2,9.2,4.8,10c0.7,0.1,1.4,0.3,2.1,0c1.7-0.7,3.5-2.8,5.5-2.9c1.3-0.1,4,0.8,5.1,2.8
	c0.1,0.3,0.5,1.3,0.5,1.6c0.1,0.4,0,0.7,0.1,3.3l-0.2,5.1c0,0.6-0.1,3.9,0,4.5v3.6c0.2,1.1,1.8,0.4,2.8,0.4l16.5-0.5
	c1.1,0,1.3-0.1,1.6-0.5c1.7-2.1-0.7-4.1-2.4-6.5c-2.4-3.4-1.6-7.3,1.8-10c4-3.1,9.6-2.4,12.5,2.2c0.6,1,0.9,3.5,0.7,4.7
	c-0.1,1.1-1,2.4-2.1,3.6c-0.9,0.9-1.9,1.9-2.4,2.8c-2,3.4,2.5,5.3,6.3,5.8c2.7,0.3,5.1,0.2,6.7,0.1c2-0.1,6.6-0.4,7.5-1.8
	c0.6-0.9,0.6-5.5,0.5-6.8c-0.6-5.5-3.4-10.3-0.7-14.4c1.3-2.1,5.6-3.8,7.8-2.5c1.3,0.7,2.4,2.5,3.7,3.1c1.8,0.7,6.1-1,7.3-2.9
	c0.8-1.3,0.5-4.6-0.9-6.2c-0.8-0.8-3.6-2.3-4.6-2.4c-1.7-0.1-4.2,2-6.5,2.6c-1.9,0.5-6.6-0.1-7.8-2.1c-0.6-1-0.5-3.9-0.4-5.4
	c0.2-3.1,0.8-6.4,1.3-9.6c0.2-1.1,0.1-1.3-1.1-1.4l-13.4-1.2c-1.1-0.1-1.3-0.1-1.9,0.3c-0.4,0.3-0.8,0.6-1.2,1
	c-0.6,0.7-1,3.1-0.7,4.1c0.7,2.5,3.3,4.9,4.1,7.2c1,2.8-1,6.3-4,7.5c-3.8,1.6-8.8,1.1-10.6-2.6c-0.4-0.9-0.7-2.1-0.8-3.2
	C251.9,67.8,251.9,68,251.9,67.6L251.9,67.6z"/>
<linearGradient id="SVGID_15_" gradientUnits="userSpaceOnUse" x1="288.8087" y1="357.9664" x2="370.3579" y2="357.9664" gradientTransform="matrix(0.7071 0.7071 -0.7071 0.7071 208.8438 -400.4088)">
	<stop  offset="0" style="stop-color:#ED70A8"/>
	<stop  offset="0.5" style="stop-color:#E5007D"/>
	<stop  offset="1" style="stop-color:#CF007F"/>
</linearGradient>
<path class="st14" d="M193.6,74.4c0,0,0,0,0.5-0.4c0.4-0.3,0.7-0.6,1.1-0.8c1.4-0.7,3.9-0.4,5-1c1.4-0.8,1.4-2.6,0.7-4.2
	c-2.4-5.8-5.3-7.8-11.5-12.7c-0.8-0.7-1.4-0.9-1.9,0c-3.6,5.8-5.9,11.9-10.6,11.2c-1.7-0.3-3.2-1.4-4.4-2.8
	c-1.4-1.6-1.6-4.5-2.5-6.3c-1-2.1-4.2-3.2-6-2.9c-5.2,1-6.2,5.9-3.4,9.7c0.4,0.5,0.8,1.1,1.4,1.4c1.6,0.6,4.1,0.5,5.5,1.7
	c0.9,0.8,2,3.2,1.5,5.2c-0.1,0.3-0.5,1.2-0.7,1.4c-0.2,0.3-0.5,0.4-2.1,2.2l-3.5,3.3c-0.4,0.3-2.6,2.5-3,3l-2.3,2.3
	c-0.6,0.8,0.9,1.5,1.6,2.1l11.2,10.5c0.8,0.7,0.9,0.8,1.4,0.8c2.5-0.2,2.2-3.1,2.7-5.8c0.6-3.8,3.8-5.9,7.7-5.4
	c4.7,0.6,7.8,4.8,6.7,9.7c-0.2,1.1-1.7,2.8-2.6,3.6c-0.8,0.7-2.2,1-3.7,1c-1.2,0-2.4,0-3.5,0.2c-3.6,0.9-1.9,5.1,0.3,7.9
	c1.6,2,3.3,3.5,4.4,4.5c1.4,1.2,4.6,4.1,6.1,3.8c1-0.2,4-3.2,4.8-4.1c3.2-3.9,4.5-8.9,9-9.9c2.2-0.5,6.1,1.2,6.8,3.5
	c0.3,1.3-0.1,3.2,0.4,4.5c0.7,1.7,4.7,3.3,6.7,2.9c1.4-0.3,3.4-2.7,3.5-4.6c0.1-1-0.9-3.9-1.4-4.5c-1.1-1.2-4.1-1.4-6-2.5
	c-1.6-0.9-4.3-4.4-3.8-6.5c0.3-1.1,2.2-2.9,3.3-3.8c2.2-1.9,4.7-3.7,7.1-5.5c0.9-0.6,0.9-0.8,0.2-1.6l-8.1-9.6
	c-0.7-0.8-0.8-0.9-1.5-1.1c-0.5-0.1-1-0.1-1.4-0.1c-0.8,0.1-2.7,1.4-3.1,2.2c-1.2,2.1-1.1,5.4-2,7.4c-1.2,2.4-4.8,3.5-7.6,2.3
	c-3.5-1.4-6.5-5-5.2-8.7c0.3-0.9,0.9-1.8,1.5-2.6C193.4,74.5,193.3,74.6,193.6,74.4L193.6,74.4z"/>
<linearGradient id="SVGID_16_" gradientUnits="userSpaceOnUse" x1="217.4386" y1="201.2547" x2="242.4601" y2="201.2547" gradientTransform="matrix(-1 0 0 -1 413.5044 236.7766)">
	<stop  offset="0" style="stop-color:#ED70A8"/>
	<stop  offset="0.5" style="stop-color:#E5007D"/>
	<stop  offset="1" style="stop-color:#CF007F"/>
</linearGradient>
<path class="st15" d="M185,39c0,0,0,0,0,0.2c0,0.1,0,0.3-0.1,0.4c-0.2,0.5-0.8,0.9-0.9,1.3c-0.1,0.5,0.3,0.9,0.8,1.1
	c1.8,0.7,2.8,0.5,5.2,0.2c0.3,0,0.5-0.1,0.4-0.4c-0.5-2-1.3-3.9-0.1-4.7c0.4-0.3,1-0.4,1.6-0.4c0.6,0.1,1.3,0.6,1.9,0.8
	c0.7,0.2,1.6-0.2,1.9-0.7c0.9-1.3,0.1-2.6-1.4-2.8c-0.2,0-0.4-0.1-0.6,0c-0.5,0.2-1,0.8-1.6,0.8c-0.4,0-1.1-0.2-1.5-0.8
	c0-0.1-0.1-0.4-0.2-0.5c0-0.1,0-0.2,0-0.9l0-1.5c0-0.2,0-1.1,0-1.3l0-1c-0.1-0.3-0.5-0.1-0.8-0.1l-4.7,0.1c-0.3,0-0.4,0-0.5,0.1
	c-0.5,0.6,0.2,1.2,0.7,1.8c0.7,1,0.5,2.1-0.5,2.9c-1.1,0.9-2.7,0.7-3.6-0.6c-0.2-0.3-0.2-1-0.2-1.3c0-0.3,0.3-0.7,0.6-1
	c0.3-0.3,0.5-0.5,0.7-0.8c0.6-1-0.7-1.5-1.8-1.7c-0.8-0.1-1.5,0-1.9,0c-0.6,0-1.9,0.1-2.1,0.5c-0.2,0.3-0.2,1.6-0.1,1.9
	c0.2,1.6,1,2.9,0.2,4.1c-0.4,0.6-1.6,1.1-2.2,0.7c-0.4-0.2-0.7-0.7-1.1-0.9c-0.5-0.2-1.7,0.3-2.1,0.8c-0.2,0.4-0.1,1.3,0.3,1.8
	c0.2,0.2,1,0.7,1.3,0.7c0.5,0,1.2-0.6,1.8-0.8c0.5-0.2,1.9,0,2.2,0.6c0.2,0.3,0.1,1.1,0.1,1.5c0,0.9-0.2,1.8-0.4,2.7
	c-0.1,0.3,0,0.4,0.3,0.4l3.8,0.3c0.3,0,0.4,0,0.5-0.1c0.1-0.1,0.2-0.2,0.3-0.3c0.2-0.2,0.3-0.9,0.2-1.2c-0.2-0.7-0.9-1.4-1.2-2.1
	c-0.3-0.8,0.3-1.8,1.1-2.1c1.1-0.4,2.5-0.3,3,0.8c0.1,0.3,0.2,0.6,0.2,0.9C185,39,185,38.9,185,39L185,39z"/>
<linearGradient id="SVGID_17_" gradientUnits="userSpaceOnUse" x1="303.974" y1="166.3395" x2="369.2546" y2="166.3395" gradientTransform="matrix(-0.7071 0.7071 -0.7071 -0.7071 606.3999 -59.5949)">
	<stop  offset="0" style="stop-color:#ED70A8"/>
	<stop  offset="0.5" style="stop-color:#E5007D"/>
	<stop  offset="1" style="stop-color:#CF007F"/>
</linearGradient>
<path class="st16" d="M259.9,64.7c0,0,0,0,0.3,0.4c0.2,0.3,0.5,0.6,0.6,0.9c0.5,1.2,0.3,3.1,0.8,4c0.6,1.1,2.1,1.1,3.4,0.6
	c4.7-1.9,6.2-4.2,10.1-9.2c0.5-0.7,0.7-1.1,0-1.5c-4.7-2.9-9.6-4.7-9-8.5c0.2-1.3,1.1-2.6,2.2-3.6c1.3-1.1,3.6-1.3,5-2
	c1.7-0.8,2.6-3.3,2.3-4.8c-0.8-4.2-4.7-5-7.8-2.7c-0.4,0.3-0.9,0.6-1.1,1.1c-0.5,1.2-0.4,3.3-1.4,4.4c-0.6,0.7-2.5,1.6-4.2,1.2
	c-0.2-0.1-0.9-0.4-1.1-0.5c-0.2-0.2-0.3-0.4-1.8-1.7l-2.6-2.8c-0.3-0.3-2-2.1-2.4-2.4l-1.9-1.9c-0.6-0.5-1.2,0.7-1.7,1.3l-8.4,9
	c-0.6,0.6-0.6,0.7-0.6,1.1c0.2,2,2.5,1.8,4.7,2.1c3,0.5,4.7,3,4.3,6.2c-0.4,3.7-3.8,6.3-7.7,5.4c-0.9-0.2-2.3-1.4-2.9-2.1
	c-0.5-0.7-0.8-1.8-0.8-3c0-1,0-2-0.2-2.8c-0.7-2.9-4.1-1.5-6.4,0.2c-1.6,1.3-2.8,2.6-3.6,3.5c-1,1.1-3.2,3.7-3,4.9
	c0.2,0.8,2.5,3.2,3.3,3.8c3.2,2.6,7.2,3.6,7.9,7.2c0.4,1.8-0.9,4.9-2.8,5.4c-1.1,0.3-2.6-0.1-3.6,0.3c-1.4,0.6-2.7,3.8-2.3,5.4
	c0.3,1.1,2.2,2.7,3.7,2.8c0.8,0.1,3.1-0.7,3.6-1.2c0.9-0.8,1.1-3.2,2-4.8c0.7-1.3,3.5-3.5,5.2-3c0.9,0.2,2.3,1.8,3.1,2.6
	c1.5,1.7,3,3.8,4.4,5.7c0.5,0.7,0.6,0.7,1.3,0.2l7.7-6.5c0.7-0.5,0.7-0.7,0.8-1.2c0.1-0.4,0.1-0.8,0.1-1.2c-0.1-0.7-1.1-2.2-1.7-2.5
	c-1.7-1-4.3-0.9-5.9-1.6c-2-0.9-2.8-3.8-1.9-6.1c1.2-2.8,4-5.2,6.9-4.2c0.7,0.2,1.4,0.7,2.1,1.2C259.8,64.5,259.7,64.4,259.9,64.7
	L259.9,64.7z"/>
<linearGradient id="SVGID_18_" gradientUnits="userSpaceOnUse" x1="311.1475" y1="511.4431" x2="343.2508" y2="511.4431" gradientTransform="matrix(0.7071 0.7071 -0.7071 0.7071 280.6953 -479.5002)">
	<stop  offset="0" style="stop-color:#F3944C"/>
	<stop  offset="0.5" style="stop-color:#ED6D05"/>
	<stop  offset="1" style="stop-color:#D25917"/>
</linearGradient>
<path class="st17" d="M158.6,100.4l-8.3-7.7c-0.5-0.4-0.6-0.4-1.1,0l-8.3,8.3c-0.5,0.5-0.6,0.6-0.7,0.8c-0.5,0.9,0,1.7,0.5,2.3
	c0.3,0.5,0.6,0.9,1.1,1.1c0.7,0.3,1.6-0.1,2.5,0c1.8,0.4,2.9,2.5,3.1,4.4c0.3,3-2.8,5-5.6,4.1c-0.8-0.3-1.7-0.9-2.1-1.6
	c-1.1-2-0.8-6.9-3.5-6.1c-1.5,0.5-5.8,4.3-6.9,6.3c-0.4,0.6-0.3,0.7,0.2,1.2c3.8,2.9,7.8,5.8,8.4,9.7c0.2,1.3,0,2.5-1.4,3
	c-0.7,0.2-1.5,0-2.3,0.2c-2.9,0.6-3.9,4-2.5,6c1.2,1.8,2.8,2.6,4.9,2.3c0.7-0.1,1.5-0.6,1.8-1.1c0.7-1.2,0.7-3.7,1.5-5.2
	c1-1.7,3.3-2.3,4.6-1.6c0.7,0.4,4,4.6,6,6.9c0.5,0.5,0.6,0.6,1.2,0.2c2.1-1.2,6.7-5.2,6.7-8.1c0-1.6-1.9-1.7-4.1-3.2
	c-2.1-1.5-2.7-3.8-1.2-5.8c0.8-1,2-1.6,3.3-1.7c0.6-0.1,2.4,0.6,2.6,1c2.2,3,0.9,6.8,4.5,6c0.5-0.1,0.6-0.2,1.1-0.7l6-7
	c0.5-0.5,0.4-0.6-0.2-1c-2.9-1.7-9.2-7.1-7.5-10.5c0.4-0.8,1.3-1.2,2.6-1.2c2.1,0,3.2,0.2,4.5-1.5c1.3-1.8,0.7-4.5-0.9-5.8
	c-1.9-1.5-3-1.3-4.8-0.6c-1.2,0.5-2,0.8-2.2,2.5c-0.2,1.6,0,4.9-2.7,4.6C159.2,101,159.1,100.9,158.6,100.4L158.6,100.4z"/>
<linearGradient id="SVGID_19_" gradientUnits="userSpaceOnUse" x1="340.4378" y1="26.6805" x2="389.1528" y2="26.6805">
	<stop  offset="0" style="stop-color:#DAE5A7"/>
	<stop  offset="0.5" style="stop-color:#B8D26E"/>
	<stop  offset="1" style="stop-color:#7FB525"/>
</linearGradient>
<path class="st18" d="M350.2,18.9l0.6,8.9c0,0.6,0,0.7,0,0.9c-0.3,0.9-1.6,1.6-2,1.7c-0.5,0.1-1.2,0-1.8-0.3
	c-1.4-0.5-2.6-1.6-3.7-1.7c-1.2-0.2-3.1,1.7-2.8,3.6c0.3,1.9,1.9,2.9,3.8,2.6c2.4-0.4,3.6-1.7,5.1-0.6c2.1,1.6,2,7.6,1.3,10.1
	c-0.2,0.6-0.1,0.7,0.5,0.7h6.2c0.6,0,0.7,0,1-0.1c0.9-0.2,2.5-1.5,2.6-1.8c0.4-0.6,0.7-2.1,0.4-2.7c-0.3-0.7-1.3-1.3-1.7-2.1
	c-1-1.7-0.2-4.4,0.9-5.2c1.5-1.2,5.4-1.4,7.1,0.4c0.9,1,1.2,3.8,0.3,5c-0.4,0.5-1,0.9-1.4,1.4c-1.4,1.7-0.5,4.1,1.3,5
	c2.2,1.1,7,0.9,9.7,0.7c0.6-0.1,0.7-0.1,0.7-0.8c-0.1-1.5-0.3-3.2-0.2-4.4c0-0.4,0-1,0.2-1.8c0.3-1.5,0.1-3.4,1.9-3.7
	c1.3-0.2,2,0.7,3.8,1.8c1.7,1,3.8,1,4.9-1c0.6-1,0.5-2.8-0.2-3.7c-1-1.2-3.5-2-4.9-1.1c-0.6,0.4-0.9,1.3-1.4,1.6
	c-0.3,0.1-2,0-2.6-0.2c-0.2-0.1-1-0.7-1.2-1.1c-0.1-0.2-0.1-0.3-0.1-0.9V19.1c0-0.6-0.1-0.7-0.7-0.5c-3,0.9-10.4,0.8-11.8-1.8
	c-0.2-0.3-0.2-0.7,0-1.1c0.4-1,2-2.4,2.3-3.6c0.5-1.5-0.3-3-1.8-3.7c-2-0.9-4-0.7-5.1,0.5c-0.4,0.4-0.9,1.9-0.8,2.4
	c0.4,2.5,2.7,3.9,2.2,5.4c-0.5,1.5-1.9,1.6-3.4,1.1c-3.1-0.9-4.3-1.1-8.2-0.1c-0.2,0.1-0.4,0.1-0.6,0.2
	C350.2,18.2,350.1,18.2,350.2,18.9L350.2,18.9z"/>
<linearGradient id="SVGID_20_" gradientUnits="userSpaceOnUse" x1="156.5199" y1="132.0965" x2="206.4275" y2="132.0965">
	<stop  offset="5.618000e-03" style="stop-color:#98D0C5"/>
	<stop  offset="0.5" style="stop-color:#00ADA4"/>
	<stop  offset="1" style="stop-color:#00947B"/>
</linearGradient>
<path class="st19" d="M176.1,108.7l-17.5,0.6c-1,0-1.2,0.2-1.2,1.2v18.3c0,1.1,0,1.3,0.1,1.6c0.5,1.5,2,1.9,3.1,2
	c0.9,0.1,1.7,0.3,2.3,0c1-0.4,1.6-2,2.7-2.7c2.4-1.6,5.9-0.4,8.2,1.4c3.6,2.9,2.5,8.7-1.7,10.7c-1.2,0.6-2.8,0.9-4,0.6
	c-3.4-0.9-8.4-6.8-10.5-2.8c-1.2,2.2-1.6,11.1-0.7,14.5c0.3,1.1,0.4,1.2,1.5,1c7.4-1,15-2.2,19.9,1.4c1.7,1.2,2.8,2.8,1.7,4.8
	c-0.5,1-1.6,1.7-2.3,2.7c-2.4,3.8,0.1,8.6,3.8,9.4c3.2,0.7,6-0.2,8-2.8c0.6-0.8,1-2.3,0.8-3.1c-0.6-2.2-3.3-4.9-4-7.4
	c-0.8-3,1.1-6.2,3.4-6.8c1.2-0.3,9.5,0.6,14.2,1c1.1,0.1,1.3,0,1.6-1.1c1.1-3.6,1.6-13.1-1.5-16.3c-1.8-1.8-4,0.3-8,1
	c-3.9,0.7-7.1-1.1-7.7-5.1c-0.3-2,0.5-3.9,1.7-5.5c0.5-0.7,3.2-2,4-1.8c5.8,0.9,8.5,6.5,11.5,1.7c0.5-0.7,0.5-0.9,0.4-2l-1.1-14.2
	c-0.1-1.1-0.2-1.2-1.3-0.9c-5.1,1.4-17.9,2.2-19.8-3.3c-0.4-1.3,0.2-2.7,1.6-4.2c2.2-2.3,3.8-3.3,3.3-6.6c-0.5-3.4-4.2-5.8-7.3-5.4
	c-3.8,0.5-4.8,1.9-5.9,4.6c-0.8,1.9-1.2,3.1,0.3,5.1c1.5,2,5.3,5.4,2,8C177.4,108.6,177.2,108.7,176.1,108.7L176.1,108.7z"/>
<linearGradient id="SVGID_21_" gradientUnits="userSpaceOnUse" x1="102.4732" y1="19.8935" x2="187.4472" y2="19.8935" gradientTransform="matrix(0.9846 -0.1749 0.1749 0.9846 -20.969 106.0681)">
	<stop  offset="0" style="stop-color:#EF7B5A"/>
	<stop  offset="0.5" style="stop-color:#E30613"/>
	<stop  offset="1" style="stop-color:#CB181A"/>
</linearGradient>
<path class="st20" d="M118.4,89.4c0,0,0,0-0.1-0.7c0-0.5-0.1-0.9,0-1.4c0.3-1.6,2-3.6,2.1-4.9c0.2-1.6-1.4-2.7-3.2-3.1
	c-6.4-1.4-9.8-0.1-17.7,2.3c-1.1,0.3-1.6,0.6-1.1,1.6c2.8,6.6,6.7,12.1,3.3,15.7c-1.2,1.3-3.1,1.9-5,2.1c-2.2,0.2-4.8-1.3-6.9-1.6
	c-2.4-0.4-5.2,1.7-6,3.4c-2.3,5.1,1.3,8.8,6.3,8.7c0.7,0,1.4,0,2-0.3c1.5-1,2.9-3.2,4.7-3.7c1.2-0.3,3.9,0.1,5.4,1.8
	c0.2,0.2,0.7,1.2,0.8,1.4c0.1,0.4,0.1,0.6,0.7,3.1l0.7,4.9c0.1,0.5,0.6,3.7,0.8,4.3l0.6,3.4c0.4,1,1.8,0.1,2.8-0.1l15.7-3.3
	c1.1-0.2,1.2-0.3,1.5-0.7c1.3-2.3-1.3-3.8-3.4-5.8c-2.9-2.8-2.8-6.7,0-9.8c3.3-3.7,8.8-3.9,12.3,0c0.8,0.9,1.4,3.2,1.5,4.4
	c0.1,1.1-0.5,2.5-1.4,3.8c-0.7,1-1.5,2.1-1.9,3.1c-1.3,3.6,3.3,4.7,7,4.5c2.6-0.1,4.9-0.7,6.4-1.1c1.9-0.4,6.2-1.5,6.9-3
	c0.5-1-0.3-5.3-0.7-6.5c-1.5-5.1-4.9-9.2-3.1-13.6c0.9-2.2,4.7-4.6,7-3.7c1.3,0.5,2.7,2,4.1,2.3c1.9,0.4,5.7-2,6.5-4
	c0.6-1.4-0.3-4.5-1.9-5.7c-0.9-0.7-3.9-1.6-4.7-1.5c-1.6,0.2-3.6,2.6-5.7,3.6c-1.7,0.8-6.3,1-7.8-0.6c-0.7-0.9-1.2-3.7-1.3-5.1
	c-0.4-3-0.4-6.2-0.4-9.4c0-1.1-0.1-1.2-1.2-1.1l-13,1.2c-1.1,0.1-1.3,0.2-1.8,0.6c-0.4,0.3-0.7,0.8-0.9,1.2c-0.4,0.8-0.4,3.1,0,4
	c1.1,2.3,4,4.2,5.1,6.2c1.4,2.5,0.1,6.2-2.5,7.9c-3.3,2.1-8.2,2.5-10.5-0.7c-0.6-0.8-1-1.9-1.3-2.9
	C118.3,89.6,118.4,89.8,118.4,89.4L118.4,89.4z"/>
<linearGradient id="SVGID_22_" gradientUnits="userSpaceOnUse" x1="54.041" y1="268.3466" x2="102.1493" y2="268.3466" gradientTransform="matrix(0.9362 0.3515 -0.3515 0.9362 101.9284 -220.4557)">
	<stop  offset="0" style="stop-color:#FFEBA9"/>
	<stop  offset="0.5" style="stop-color:#FECC00"/>
	<stop  offset="1" style="stop-color:#F8AE00"/>
</linearGradient>
<path class="st21" d="M73.9,42.8L65,39.5c-1-0.4-1.1-0.3-1.6,0.6c-0.7,1.3-6.5,9.7-5.4,12.5c0.7,1.9,4.2,3.5,6,3.2
	c0.5-0.1,2.1-0.7,2.8-0.6c3.9,0.5,5.9,4,6.2,5c0.7,1.9-0.2,4.5-1.4,5.7c-1.8,1.6-5.9,1.8-8,0.6c-1.5-0.9-2.1-3.8-3.4-4.6
	c-2.9-1.8-5.4,0.1-6,0.5c-1.4,1-2.5,4-2.8,9.2c-0.1,1.3-0.5,2.8-1,4.4c-0.1,0.5-1.1,2.5-1.4,3c-0.3,0.6,0.5,0.2,1.5,0.4
	c2.9,0.5,6.7,1.4,8.3,2.3c2,1.1,6,5.5,8,2.7c1.1-1.6-0.6-6.3-0.4-8c0.3-2.8,3.2-5.4,5.5-5.2c3.7,0.2,8.7,3.7,7.9,7.7
	c-0.3,1.5-1.1,3.3-1.9,4.1c-2.4,2.1-5.3,2.1-5,3.9c0.7,3.5,10,7.4,12.8,8.1c0.7,0.2,1.5,0.3,2.2,0.4c1,0.1,1.7,0.4,2.1-0.5l5-13.6
	c0.4-0.9,0.4-1.1,0-1.8c-0.8-1.5-2.3-2.8-3.1-2.9c-1.3-0.2-2.9,0.9-4.6,0.8c-3.6-0.1-6.5-3.9-6-7.1c0.8-4.6,4-6.8,8.4-6
	c0.7,0.1,1.2,0.3,1.7,0.6c1.4,1,2.7,3.6,4.2,4.7c2.1,1.4,5.1,1,6.3-0.5c1.9-2.4,2.3-7.9,2.6-12.1c0.1-1,0-1.2-1-1.5
	c-6.9-2.1-17.4-5.3-16-12.6c0.2-0.9,0.6-1.7,1.3-2.3c1.5-1.4,4.2-2.5,5.4-4.2c1.4-2,1.6-4.6,0.2-6.4c-1.9-2.3-4.9-3.6-8.2-2.9
	c-2.2,0.4-4.3,3.9-3.8,6.6c0.2,1,0.8,2,1,2.9c1,4-2.9,7-6.9,7.1c-0.4,0-0.8,0-1.2-0.1C75,43.3,74.9,43.2,73.9,42.8L73.9,42.8z"/>
<linearGradient id="SVGID_23_" gradientUnits="userSpaceOnUse" x1="76.8355" y1="146.9759" x2="165.5671" y2="146.9759">
	<stop  offset="0" style="stop-color:#D870A9"/>
	<stop  offset="0.5" style="stop-color:#C8007F"/>
	<stop  offset="1" style="stop-color:#A11880"/>
</linearGradient>
<path class="st22" d="M116.1,134.5c0,0,0,0,0.1-0.7c0.1-0.5,0.1-1,0.3-1.5c0.6-1.6,2.7-3.3,3.1-4.7c0.5-1.7-1-3.1-2.7-3.8
	c-6.3-2.6-10.1-1.9-18.6-0.9c-1.1,0.1-1.7,0.4-1.5,1.5c1.7,7.3,4.7,13.7,0.5,16.7c-1.5,1.1-3.6,1.4-5.6,1.3
	c-2.3-0.2-4.7-2.2-6.7-2.9c-2.4-0.8-5.7,0.8-6.8,2.4c-3.3,4.8-0.2,9.3,4.8,10.1c0.7,0.1,1.4,0.3,2.1,0c1.7-0.7,3.6-2.8,5.5-2.9
	c1.3-0.1,4,0.9,5.2,2.9c0.2,0.2,0.5,1.3,0.5,1.6c0.1,0.4-0.1,0.7,0.1,3.3l-0.2,5.2c0,0.6-0.1,3.9,0,4.6v3.6c0.2,1.1,1.8,0.4,2.9,0.4
	l16.7-0.5c1.2,0,1.3-0.1,1.6-0.5c1.7-2.1-0.7-4.1-2.4-6.5c-2.5-3.4-1.6-7.4,1.8-10.1c4-3.2,9.7-2.4,12.6,2.3c0.6,1,0.9,3.5,0.8,4.8
	c-0.1,1.1-1,2.4-2.1,3.6c-0.9,0.9-1.9,1.9-2.5,2.9c-2,3.5,2.5,5.4,6.3,5.9c2.8,0.3,5.2,0.2,6.8,0.1c2-0.1,6.6-0.4,7.6-1.8
	c0.6-0.9,0.6-5.5,0.5-6.8c-0.6-5.5-3.4-10.4-0.7-14.5c1.3-2.1,5.6-3.8,7.9-2.5c1.3,0.7,2.4,2.6,3.8,3.1c1.9,0.8,6.2-1.1,7.4-3
	c0.8-1.3,0.5-4.7-0.9-6.2c-0.8-0.9-3.7-2.3-4.6-2.4c-1.7-0.1-4.2,2-6.5,2.7c-1.9,0.5-6.7-0.1-7.9-2.1c-0.6-1.1-0.5-4-0.4-5.5
	c0.2-3.1,0.8-6.5,1.3-9.7c0.2-1.1,0.1-1.3-1.1-1.4l-13.6-1.2c-1.2-0.1-1.3-0.1-1.9,0.3c-0.4,0.3-0.8,0.7-1.2,1.1
	c-0.6,0.7-1,3.1-0.7,4.1c0.7,2.5,3.4,5,4.2,7.3c1,2.8-1,6.4-4,7.6c-3.8,1.6-8.9,1.1-10.7-2.7c-0.4-0.9-0.7-2.1-0.8-3.2
	C116.1,134.7,116.1,134.9,116.1,134.5L116.1,134.5z"/>
<linearGradient id="SVGID_24_" gradientUnits="userSpaceOnUse" x1="460.4552" y1="73.1859" x2="549.1868" y2="73.1859" gradientTransform="matrix(-1 0 0 -1 1009.6411 146.3723)">
	<stop  offset="0" style="stop-color:#4AC0EF"/>
	<stop  offset="0.5" style="stop-color:#1D9EDA"/>
	<stop  offset="1" style="stop-color:#188ACB"/>
</linearGradient>
<path class="st23" d="M509.9,85.7c0,0,0,0-0.1,0.7c-0.1,0.5-0.1,1-0.3,1.5c-0.6,1.6-2.7,3.3-3.1,4.7c-0.5,1.7,1,3.1,2.7,3.8
	c6.3,2.6,10.1,1.9,18.6,0.9c1.1-0.1,1.7-0.4,1.5-1.5c-1.7-7.3-4.7-13.7-0.5-16.7c1.5-1.1,3.6-1.4,5.6-1.3c2.3,0.2,4.7,2.2,6.7,2.9
	c2.4,0.8,5.7-0.8,6.8-2.4c3.3-4.8,0.2-9.3-4.8-10.1c-0.7-0.1-1.4-0.3-2.1,0c-1.7,0.7-3.6,2.8-5.5,2.9c-1.3,0.1-4-0.9-5.2-2.9
	c-0.2-0.2-0.5-1.3-0.5-1.6c-0.1-0.4,0.1-0.7-0.1-3.3l0.2-5.2c0-0.6,0.1-3.9,0-4.6v-3.6c-0.2-1.1-1.8-0.4-2.9-0.4l-16.7,0.5
	c-1.2,0-1.3,0.1-1.6,0.5c-1.7,2.1,0.7,4.1,2.4,6.5c2.5,3.4,1.6,7.4-1.8,10.1c-4,3.2-9.7,2.4-12.6-2.3c-0.6-1-0.9-3.5-0.8-4.8
	c0.1-1.1,1-2.4,2.1-3.6c0.9-0.9,1.9-1.9,2.5-2.9c2-3.5-2.5-5.4-6.3-5.9c-2.8-0.3-5.2-0.2-6.8-0.1c-2,0.1-6.6,0.4-7.6,1.8
	c-0.6,0.9-0.6,5.5-0.5,6.8c0.6,5.5,3.4,10.4,0.7,14.5c-1.3,2.1-5.6,3.8-7.9,2.5c-1.3-0.7-2.4-2.6-3.8-3.1c-1.9-0.8-6.2,1.1-7.4,3
	c-0.8,1.3-0.5,4.7,0.9,6.2c0.8,0.9,3.7,2.3,4.6,2.4c1.7,0.1,4.2-2,6.5-2.7c1.9-0.5,6.7,0.1,7.9,2.1c0.6,1.1,0.5,4,0.4,5.5
	c-0.2,3.1-0.8,6.5-1.3,9.7c-0.2,1.1-0.1,1.3,1.1,1.4l13.6,1.2c1.2,0.1,1.3,0.1,1.9-0.3c0.4-0.3,0.8-0.7,1.2-1.1
	c0.6-0.7,1-3.1,0.7-4.1c-0.7-2.5-3.4-5-4.2-7.3c-1-2.8,1-6.4,4-7.6c3.8-1.6,8.9-1.1,10.7,2.7c0.4,0.9,0.7,2.1,0.8,3.2
	C510,85.4,509.9,85.3,509.9,85.7L509.9,85.7z"/>
<linearGradient id="SVGID_25_" gradientUnits="userSpaceOnUse" x1="23.0519" y1="100.0648" x2="59.6119" y2="100.0648">
	<stop  offset="0" style="stop-color:#F3944C"/>
	<stop  offset="0.5" style="stop-color:#ED6D05"/>
	<stop  offset="1" style="stop-color:#D25917"/>
</linearGradient>
<path class="st24" d="M37.4,82.9l-12.8,0.5c-0.7,0-0.8,0.1-0.8,0.9v13.4c0,0.8,0,0.9,0.1,1.1c0.3,1.1,1.4,1.4,2.3,1.5
	c0.6,0.1,1.2,0.2,1.7,0c0.7-0.3,1.2-1.4,2-2c1.8-1.2,4.3-0.3,6,1c2.7,2.1,1.8,6.3-1.2,7.8c-0.9,0.4-2.1,0.6-2.9,0.4
	c-2.5-0.7-6.2-5-7.7-2.1c-0.9,1.6-1.2,8.1-0.5,10.6c0.2,0.8,0.3,0.9,1.1,0.8c5.4-0.7,11-1.6,14.6,1.1c1.2,0.9,2,2,1.2,3.5
	c-0.4,0.7-1.2,1.2-1.7,2c-1.8,2.8,0.1,6.3,2.8,6.9c2.4,0.5,4.4-0.2,5.8-2.1c0.5-0.6,0.7-1.7,0.6-2.3c-0.4-1.6-2.4-3.6-2.9-5.4
	c-0.6-2.2,0.8-4.6,2.5-5c0.9-0.2,6.9,0.4,10.4,0.8c0.8,0.1,0.9,0,1.2-0.8c0.8-2.6,1.2-9.6-1.1-12c-1.3-1.3-2.9,0.2-5.8,0.7
	c-2.9,0.5-5.2-0.8-5.6-3.7c-0.2-1.4,0.4-2.9,1.2-4c0.4-0.5,2.4-1.4,2.9-1.4c4.2,0.6,6.2,4.8,8.4,1.2c0.3-0.5,0.4-0.7,0.3-1.5
	l-0.8-10.4c-0.1-0.8-0.2-0.9-0.9-0.7c-3.7,1-13.1,1.6-14.5-2.4c-0.3-0.9,0.1-2,1.1-3.1c1.6-1.7,2.8-2.4,2.4-4.8
	c-0.4-2.5-3-4.2-5.3-4C38.5,70,37.8,71.1,37,73c-0.6,1.4-0.9,2.3,0.2,3.8c1.1,1.5,3.9,4,1.5,5.9C38.3,82.9,38.2,82.9,37.4,82.9
	L37.4,82.9z"/>
<linearGradient id="SVGID_26_" gradientUnits="userSpaceOnUse" x1="23.9458" y1="414.0051" x2="56.1986" y2="414.0051" gradientTransform="matrix(0.8033 0.5955 -0.5955 0.8033 258.048 -345.5209)">
	<stop  offset="0" style="stop-color:#BA81B7"/>
	<stop  offset="0.5" style="stop-color:#92338A"/>
	<stop  offset="1" style="stop-color:#772182"/>
</linearGradient>
<path class="st25" d="M39,1l-3.2,5c-0.2,0.4-0.3,0.4-0.4,0.5c-0.5,0.4-1.5,0.2-1.7,0.1c-0.3-0.2-0.6-0.5-0.8-0.8
	c-0.6-0.8-0.8-1.9-1.3-2.4C31,2.8,29.3,3,28.7,4.1c-0.6,1.2-0.1,2.3,1,2.8c1.4,0.7,2.6,0.5,2.9,1.7c0.5,1.7-2,4.8-3.3,5.8
	c-0.3,0.3-0.3,0.3,0,0.6l3.3,2.4c0.3,0.3,0.4,0.3,0.6,0.4c0.5,0.3,1.9,0.2,2.1,0.1c0.4-0.2,1.2-0.9,1.3-1.3c0.1-0.5-0.2-1.2-0.1-1.8
	c0.1-1.3,1.6-2.4,2.6-2.4c1.3,0,3.4,1.4,3.6,3c0.1,0.9-0.9,2.5-1.8,2.8c-0.4,0.1-0.9,0.1-1.3,0.2c-1.4,0.4-1.9,2-1.3,3.2
	c0.7,1.5,3.4,3.3,4.9,4.2c0.4,0.2,0.4,0.2,0.7-0.1c0.5-0.8,1.1-1.8,1.6-2.4c0.2-0.2,0.4-0.5,0.8-0.9c0.7-0.7,1.4-1.7,2.5-1.2
	c0.8,0.4,0.8,1.2,1.3,2.5c0.5,1.2,1.6,2,3,1.4c0.7-0.3,1.4-1.3,1.3-2c-0.1-1.1-1.1-2.5-2.2-2.5c-0.5,0-1,0.3-1.4,0.3
	c-0.2,0-1.1-0.8-1.3-1.1c-0.1-0.1-0.2-0.8-0.2-1.1c0-0.1,0.1-0.2,0.3-0.5l4.3-5.8c0.3-0.3,0.2-0.4-0.2-0.5C51.7,11,47.8,8,48.1,6
	c0-0.3,0.2-0.4,0.4-0.6c0.6-0.4,2-0.5,2.7-1c0.9-0.6,1-1.7,0.5-2.7c-0.7-1.3-1.8-2-2.9-1.7c-0.4,0.1-1.2,0.7-1.4,1
	c-0.7,1.5-0.1,3.1-1,3.8c-0.8,0.6-1.6,0.1-2.3-0.7c-1.3-1.7-1.8-2.3-4.3-3.3c-0.1-0.1-0.3-0.1-0.4-0.1C39.3,0.6,39.2,0.6,39,1L39,1z
	"/>
<linearGradient id="SVGID_27_" gradientUnits="userSpaceOnUse" x1="251.8803" y1="38.5677" x2="288.4401" y2="38.5677">
	<stop  offset="0" style="stop-color:#FFEBA9"/>
	<stop  offset="0.5" style="stop-color:#FECC00"/>
	<stop  offset="1" style="stop-color:#F8AE00"/>
</linearGradient>
<path class="st26" d="M266.2,21.4l-12.8,0.5c-0.7,0-0.8,0.1-0.8,0.9v13.4c0,0.8,0,0.9,0.1,1.1c0.4,1.1,1.4,1.4,2.3,1.5
	c0.6,0.1,1.2,0.2,1.7,0c0.8-0.3,1.2-1.4,2-2c1.8-1.2,4.3-0.3,6,1c2.7,2.1,1.8,6.3-1.2,7.8c-0.9,0.4-2.1,0.6-2.9,0.4
	c-2.5-0.7-6.2-5-7.7-2.1c-0.8,1.6-1.2,8.1-0.5,10.6c0.2,0.8,0.3,0.9,1.1,0.8c5.4-0.7,11-1.6,14.6,1.1c1.2,0.9,2,2,1.2,3.5
	c-0.4,0.7-1.2,1.2-1.7,2c-1.8,2.8,0.1,6.3,2.8,6.9c2.4,0.5,4.4-0.2,5.8-2.1c0.5-0.6,0.7-1.7,0.6-2.3c-0.4-1.6-2.4-3.6-2.9-5.4
	c-0.6-2.2,0.8-4.6,2.5-5c0.9-0.2,6.9,0.4,10.4,0.8c0.8,0.1,0.9,0,1.2-0.8c0.8-2.6,1.2-9.6-1.1-11.9c-1.3-1.3-2.9,0.2-5.8,0.7
	c-2.9,0.5-5.2-0.8-5.6-3.7c-0.2-1.4,0.4-2.9,1.2-4c0.4-0.5,2.4-1.4,2.9-1.4c4.2,0.6,6.2,4.8,8.4,1.2c0.3-0.5,0.4-0.7,0.3-1.5
	L287.3,23c-0.1-0.8-0.2-0.9-0.9-0.7c-3.7,1-13.1,1.6-14.5-2.4c-0.3-0.9,0.1-2,1.1-3.1c1.6-1.7,2.8-2.4,2.4-4.8c-0.4-2.5-3-4.2-5.3-4
	c-2.8,0.3-3.5,1.4-4.4,3.3c-0.6,1.4-0.9,2.3,0.2,3.8c1.1,1.5,3.9,4,1.5,5.9C267.2,21.4,267.1,21.4,266.2,21.4L266.2,21.4z"/>
<linearGradient id="SVGID_28_" gradientUnits="userSpaceOnUse" x1="960.1386" y1="13.6043" x2="994.4501" y2="13.6043" gradientTransform="matrix(-0.3572 -0.934 0.934 -0.3572 708.6227 1031.0338)">
	<stop  offset="0" style="stop-color:#DAE5A7"/>
	<stop  offset="0.5" style="stop-color:#B8D26E"/>
	<stop  offset="1" style="stop-color:#7FB525"/>
</linearGradient>
<path class="st27" d="M368.5,117c0,0,0,0-0.3,0.1c-0.2,0-0.4,0.1-0.6,0.1c-0.7,0-1.6-0.5-2.1-0.5c-0.7,0.1-1,0.8-1,1.5
	c-0.1,2.7,0.7,3.9,2.3,6.9c0.2,0.4,0.3,0.4,0.6,0.2c2.4-1.6,4.4-3.4,6.1-2.3c0.6,0.4,1.2,1.1,1.2,1.8c0.1,0.9-0.4,2.2-0.3,3
	c0.1,0.9,1.2,1.9,2,2c2.2,0.4,3.4-1.2,3-3.1c-0.1-0.3-0.1-0.6-0.3-0.8c-0.5-0.5-1.5-0.9-1.8-1.6c-0.2-0.5-0.2-1.8,0.4-2.5
	c0.1-0.1,0.2-0.2,0.2-0.2c0.1-0.1,0.2-0.1,0.6-0.2l2.7-0.9c0.2-0.1,1.4-0.5,1.7-0.6l1.3-0.5c0.4-0.2-0.1-0.7-0.2-1.1l-2.5-6
	c-0.2-0.4-0.2-0.5-0.4-0.5c-1-0.3-1.4,0.8-2,1.8c-0.9,1.4-2.5,1.6-3.9,0.8c-1.7-1-2.2-3.3-0.8-4.9c0.4-0.4,1.1-0.9,1.5-0.9
	c0.8-0.1,2,0.7,3,0.8c2.6,0.3,1-4,0.3-5.6c-0.3-0.7-1.1-2.3-1.7-2.5c-0.4-0.1-2.1,0.5-2.5,0.8c-1.9,1-3.3,2.7-5.2,2.3
	c-0.9-0.2-2.2-1.5-2-2.5c0.1-0.6,0.6-1.2,0.6-1.8c0-0.8-1.2-2.1-2.1-2.3c-0.6-0.1-1.8,0.5-2.1,1.2c-0.2,0.4-0.3,1.7-0.2,2
	c0.2,0.6,1.3,1.2,1.9,2c0.5,0.6,0.9,2.4,0.3,3.1c-0.3,0.4-1.4,0.7-1.9,0.9c-1.2,0.4-2.5,0.6-3.7,0.9c-0.4,0.1-0.5,0.1-0.3,0.6
	l1.5,5.1c0.1,0.4,0.2,0.5,0.4,0.7c0.2,0.1,0.4,0.2,0.5,0.3c0.3,0.1,1.3-0.1,1.6-0.3c0.8-0.6,1.3-1.9,2.1-2.5
	c0.9-0.7,2.4-0.5,3.3,0.4c1.1,1.2,1.6,3.1,0.5,4.2c-0.3,0.3-0.7,0.5-1,0.7C368.5,117,368.6,116.9,368.5,117L368.5,117z"/>
<linearGradient id="SVGID_29_" gradientUnits="userSpaceOnUse" x1="204.9864" y1="44.0448" x2="253.451" y2="44.0448">
	<stop  offset="0" style="stop-color:#F3944C"/>
	<stop  offset="0.5" style="stop-color:#ED6D05"/>
	<stop  offset="1" style="stop-color:#D25917"/>
</linearGradient>
<path class="st28" d="M232.7,35.1c0,0,0,0,0.4-0.3c0.3-0.2,0.5-0.4,0.9-0.6c1.1-0.5,3-0.3,3.8-0.8c1.1-0.6,1.1-2,0.6-3.2
	c-1.8-4.4-4-6-8.8-9.7c-0.6-0.5-0.8-0.5-1.2,0.2c-2.8,4.4-4.7,8.9-8.3,8.4c-1.3-0.2-2.7-0.9-3.4-2.1c-0.8-1.5-0.9-3.9-1.7-5.1
	c-0.9-1.4-3.4-2.2-4.8-1.8c-3.9,1-4.8,4.5-2.6,7.4c0.3,0.4,0.6,0.9,1,1c1.2,0.5,3.2,0.4,4.2,1.3c0.7,0.6,1.6,2.8,1.2,4.4
	c0,0.2-0.1,0.4-0.2,0.6c-0.1,0.2-0.2,0.3-0.9,0.9l-3.7,3.5c-0.3,0.3-2,1.9-2.3,2.3l-1.8,1.8c-0.4,0.6,0.7,1.1,1.2,1.6l8.6,8
	c0.6,0.6,0.7,0.6,1,0.6c1.9-0.2,1.7-2.4,2-4.4c0.5-2.9,2.9-4.5,5.9-4.1c3.6,0.4,6.1,3.8,4.9,7.4c-0.3,0.9-1.1,2.3-1.8,2.7
	c-1.2,0.7-3.9,0.4-5.5,0.9c-4.5,1.5,1.3,7.4,3.6,9.5c1,0.9,3.5,3.1,4.6,2.9c0.8-0.1,3.1-2.4,3.6-3.2c2.5-3,3.5-6.8,6.8-7.6
	c1.7-0.4,4.7,0.9,5.2,2.7c0.3,1-0.1,2.5,0.3,3.4c0.5,1.3,3.6,2.6,5.1,2.2c1.1-0.3,2.6-2.1,2.6-3.5c0.1-0.8-0.7-3-1.1-3.5
	c-0.8-0.9-3.1-1.1-4.6-1.9c-1.2-0.7-3.3-3.4-2.9-4.9c0.2-0.8,1.7-2.2,2.5-2.9c1.6-1.5,3.6-2.8,5.4-4.2c0.7-0.5,0.7-0.6,0.1-1.2
	l-6.2-7.3c-0.5-0.6-0.6-0.7-1.1-0.8c-0.4-0.1-0.7-0.1-1.1-0.1c-0.6,0.1-2.1,1.1-2.4,1.7c-0.9,1.6-0.8,4.1-1.5,5.7
	c-0.9,1.9-3.7,2.7-5.8,1.8c-2.7-1.1-4.9-3.9-4-6.6c0.2-0.7,0.7-1.4,1.2-2C232.6,35.2,232.5,35.3,232.7,35.1L232.7,35.1z"/>
</svg>
