<svg xmlns="http://www.w3.org/2000/svg" width="108.088" height="117.461" viewBox="0 0 28.598 31.078" id="svg1270"><g id="layer1" transform="translate(-108.165 -131.782)"><g id="g1840" transform="translate(142.875)" stroke-width=".353"><path d="M-18.026 148.346a2.17 2.17 0 1 0-4.338 0 2.17 2.17 0 0 0 4.338 0" id="path182" fill="#286e6e"/><path d="M-24.537 146.466a4.806 4.806 0 0 1 4.415-2.92c2.647 0 4.8 2.153 4.8 4.8a4.76 4.76 0 0 1-.77 2.596l1.042.66c.606-.94.962-2.057.962-3.256a6.04 6.04 0 0 0-6.034-6.034 6.012 6.012 0 0 0-4.415 1.934z" id="path186" fill="#3c3c3b"/><path d="M-20.122 138.429a9.843 9.843 0 0 0-4.415 1.043v1.408a8.62 8.62 0 0 1 4.415-1.216c4.787 0 8.682 3.894 8.682 8.682 0 1.72-.504 3.323-1.37 4.673l1.042.66a9.855 9.855 0 0 0 1.563-5.333c0-5.469-4.449-9.917-9.917-9.917" id="path190" fill="#3c3c3b"/><path d="M-13.258 152.736a8.213 8.213 0 0 1-6.937 3.822c-4.528 0-8.212-3.684-8.212-8.212v-14.577l-2.26 1.16.008 13.7c.15 5.618 4.845 10.188 10.464 10.188 3.717 0 6.987-1.946 8.846-4.873z" id="path194" fill="#5b8d94"/><path d="M-20.122 134.335c-1.543 0-3.026.258-4.415.72v1.305a12.705 12.705 0 0 1 4.415-.79c7.045 0 12.776 5.731 12.776 12.776 0 2.524-.739 4.877-2.007 6.86l1.042.66a13.92 13.92 0 0 0 2.2-7.52c0-7.726-6.286-14.01-14.01-14.01" id="path198" fill="#3c3c3b"/><path d="M-9.842 154.898c-2.175 3.425-6.003 5.703-10.352 5.703-6.758 0-12.256-5.498-12.256-12.255v-12.5l-2.26 1.16.008 11.635c.158 7.84 6.666 14.22 14.508 14.22 5.151 0 9.684-2.698 12.26-6.756z" id="path202" fill="#53bdc3"/><path d="M-16.528 150.666a4.342 4.342 0 0 1-3.667 2.022 4.348 4.348 0 0 1-4.342-4.342v-16.564l-2.26 1.16.008 15.544c.075 3.563 3.033 6.462 6.594 6.462 2.344 0 4.4-1.231 5.572-3.076z" id="path206" fill="#286e6e"/></g></g></svg>