<?xml version="1.0" encoding="utf-8"?>
<!-- Generator: Adobe Illustrator 22.0.1, SVG Export Plug-In . SVG Version: 6.00 Build 0)  -->
<svg version="1.1" id="Layer_1" xmlns="http://www.w3.org/2000/svg" xmlns:xlink="http://www.w3.org/1999/xlink" x="0px" y="0px"
	 width="92.9px" height="70.5px" viewBox="0 0 92.9 70.5" style="enable-background:new 0 0 92.9 70.5;" xml:space="preserve">
<style type="text/css">
	.st0{fill:#1D3F59;}
	.st1{fill:#EE3243;}
	.st2{clip-path:url(#SVGID_2_);fill:url(#SVGID_3_);}
	.st3{clip-path:url(#SVGID_5_);fill:url(#SVGID_6_);}
	.st4{clip-path:url(#SVGID_8_);fill:url(#SVGID_9_);}
</style>
<g>
	<path class="st0" d="M6.6,63.4H4.9c-0.1,0-0.2,0-0.2,0.1c-0.1,0.1-0.1,0.2-0.1,0.2V70c0,0.1,0,0.2-0.1,0.2
		c-0.1,0.1-0.2,0.1-0.2,0.1H3.3c-0.1,0-0.2,0-0.2-0.1C3,70.2,3,70.1,3,70v-6.2c0-0.1,0-0.2-0.1-0.2c-0.1-0.1-0.2-0.1-0.2-0.1H0.9
		c-0.1,0-0.2,0-0.2-0.1c-0.1-0.1-0.1-0.2-0.1-0.2v-0.7c0-0.1,0-0.2,0.1-0.2C0.8,62,0.8,62,0.9,62h5.6c0.1,0,0.2,0,0.2,0.1
		c0.1,0.1,0.1,0.2,0.1,0.2v0.7c0,0.1,0,0.2-0.1,0.2C6.8,63.4,6.7,63.4,6.6,63.4"/>
	<path class="st0" d="M9.6,63.8v1.4c0,0.1,0,0.2,0.1,0.2c0.1,0.1,0.2,0.1,0.2,0.1h3.3c0.1,0,0.2,0,0.2,0.1c0.1,0.1,0.1,0.2,0.1,0.2
		v0.7c0,0.1,0,0.2-0.1,0.2c-0.1,0.1-0.2,0.1-0.2,0.1H10c-0.1,0-0.2,0-0.2,0.1c-0.1,0.1-0.1,0.2-0.1,0.2v1.2c0,0.1,0,0.2,0.1,0.2
		c0.1,0.1,0.2,0.1,0.2,0.1h3.8c0.1,0,0.2,0,0.2,0.1c0.1,0.1,0.1,0.2,0.1,0.2V70c0,0.1,0,0.2-0.1,0.2c-0.1,0.1-0.2,0.1-0.2,0.1H8.4
		c-0.1,0-0.2,0-0.2-0.1C8.1,70.2,8,70.1,8,70v-7.6c0-0.1,0-0.2,0.1-0.2C8.2,62,8.3,62,8.4,62h5.4c0.1,0,0.2,0,0.2,0.1
		c0.1,0.1,0.1,0.2,0.1,0.2v0.7c0,0.1,0,0.2-0.1,0.2c-0.1,0.1-0.2,0.1-0.2,0.1H10c-0.1,0-0.2,0-0.2,0.1C9.6,63.6,9.6,63.7,9.6,63.8"
		/>
	<path class="st0" d="M17.4,65.7V70c0,0.1,0,0.2-0.1,0.2c-0.1,0.1-0.2,0.1-0.2,0.1h-0.9c-0.1,0-0.2,0-0.2-0.1
		c-0.1-0.1-0.1-0.2-0.1-0.2v-7.8c0-0.1,0-0.2,0.1-0.2c0.1,0,0.2,0,0.2,0.1l5,4.7c0.1,0.1,0.1,0.1,0.2,0.1c0,0,0.1-0.1,0.1-0.2v-4.3
		c0-0.1,0-0.2,0.1-0.2c0.1-0.1,0.2-0.1,0.2-0.1h0.9c0.1,0,0.2,0,0.2,0.1c0.1,0.1,0.1,0.2,0.1,0.2v7.8c0,0.1,0,0.2-0.1,0.2
		c-0.1,0-0.2,0-0.3-0.1l-5-4.6c-0.1-0.1-0.1-0.1-0.2-0.1C17.4,65.6,17.4,65.6,17.4,65.7"/>
	<path class="st0" d="M25.2,70.3c-0.1,0-0.2,0-0.2-0.1c-0.1-0.1-0.1-0.2-0.1-0.2v-7.6c0-0.1,0-0.2,0.1-0.2C25,62,25.1,62,25.2,62
		h2.9c1.2,0,2.2,0.3,2.9,1c0.4,0.4,0.7,0.8,0.9,1.3c0.2,0.6,0.3,1.1,0.3,1.8c0,0.3,0,0.6-0.1,0.9c-0.1,0.3-0.1,0.6-0.2,0.8
		c-0.2,0.5-0.5,1-0.9,1.4c-0.4,0.3-0.8,0.6-1.3,0.8c-0.5,0.2-1,0.3-1.6,0.3H25.2z M26.7,68.9h1.4c0.3,0,0.6,0,0.9-0.1
		c0.3-0.1,0.6-0.2,0.8-0.4c0.2-0.2,0.4-0.5,0.6-0.8c0.2-0.3,0.2-0.8,0.2-1.4c0-0.6-0.1-1-0.2-1.4c-0.2-0.4-0.4-0.6-0.6-0.8
		c-0.2-0.2-0.5-0.3-0.8-0.4c-0.3-0.1-0.6-0.1-0.9-0.1h-1.4c-0.1,0-0.2,0-0.2,0.1c-0.1,0.1-0.1,0.2-0.1,0.2v4.8c0,0.1,0,0.2,0.1,0.2
		C26.6,68.9,26.6,68.9,26.7,68.9"/>
	<path class="st0" d="M35,63.8v1.4c0,0.1,0,0.2,0.1,0.2c0.1,0.1,0.2,0.1,0.2,0.1h3.3c0.1,0,0.2,0,0.2,0.1c0.1,0.1,0.1,0.2,0.1,0.2
		v0.7c0,0.1,0,0.2-0.1,0.2c-0.1,0.1-0.2,0.1-0.2,0.1h-3.3c-0.1,0-0.2,0-0.2,0.1C35,67.1,35,67.2,35,67.3v1.2c0,0.1,0,0.2,0.1,0.2
		c0.1,0.1,0.2,0.1,0.2,0.1h3.8c0.1,0,0.2,0,0.2,0.1c0.1,0.1,0.1,0.2,0.1,0.2V70c0,0.1,0,0.2-0.1,0.2c-0.1,0.1-0.2,0.1-0.2,0.1h-5.4
		c-0.1,0-0.2,0-0.2-0.1c-0.1-0.1-0.1-0.2-0.1-0.2v-7.6c0-0.1,0-0.2,0.1-0.2c0.1-0.1,0.2-0.1,0.2-0.1h5.4c0.1,0,0.2,0,0.2,0.1
		c0.1,0.1,0.1,0.2,0.1,0.2v0.7c0,0.1,0,0.2-0.1,0.2c-0.1,0.1-0.2,0.1-0.2,0.1h-3.8c-0.1,0-0.2,0-0.2,0.1C35,63.6,35,63.7,35,63.8"/>
	<path class="st0" d="M42.4,70.3h-0.9c-0.1,0-0.2,0-0.2-0.1c-0.1-0.1-0.1-0.2-0.1-0.2v-7.6c0-0.1,0-0.2,0.1-0.2
		c0.1-0.1,0.2-0.1,0.2-0.1h3.4c0.4,0,0.8,0.1,1.2,0.2c0.3,0.2,0.6,0.3,0.9,0.6c0.1,0.1,0.2,0.3,0.3,0.4c0.1,0.2,0.2,0.3,0.2,0.5
		c0.1,0.4,0.2,0.7,0.2,1.2c0,0.6-0.2,1.2-0.5,1.6c-0.2,0.4-0.6,0.7-0.9,0.9c-0.1,0-0.1,0.1-0.2,0.2c0,0.1,0,0.2,0.1,0.2
		c0.3,0.4,0.5,0.7,0.8,1.1c0.3,0.3,0.5,0.7,0.8,1.1c0.1,0.1,0.1,0.2,0.1,0.2c0,0.1-0.1,0.1-0.2,0.1h-1.1c-0.1,0-0.2,0-0.3-0.1
		c-0.1-0.1-0.2-0.1-0.2-0.2c-0.1-0.2-0.3-0.3-0.4-0.5c-0.1-0.2-0.3-0.3-0.4-0.5L44.5,68c-0.1-0.1-0.1-0.2-0.2-0.2
		c-0.1-0.1-0.2-0.1-0.3-0.1h-0.9c-0.1,0-0.2,0-0.2,0.1c-0.1,0.1-0.1,0.2-0.1,0.2V70c0,0.1,0,0.2-0.1,0.2
		C42.6,70.3,42.5,70.3,42.4,70.3 M43.1,66.3h1.8c0.1,0,0.3,0,0.4-0.1c0.2-0.1,0.3-0.1,0.4-0.3c0.1-0.1,0.2-0.3,0.3-0.4
		c0.1-0.2,0.1-0.4,0.1-0.6c0-0.1,0-0.3,0-0.4c0-0.1,0-0.2-0.1-0.2C46,64.1,46,64,46,64c-0.1-0.2-0.2-0.3-0.4-0.4
		c-0.2-0.1-0.4-0.2-0.7-0.2h-1.8c-0.1,0-0.2,0-0.2,0.1c-0.1,0.1-0.1,0.2-0.1,0.2v2.1c0,0.1,0,0.2,0.1,0.2
		C42.9,66.2,43,66.3,43.1,66.3"/>
	<path class="st0" d="M49.2,69l0.5-0.7c0.1-0.1,0.1-0.1,0.2-0.1c0.1,0,0.2,0,0.3,0.1c0.3,0.2,0.7,0.4,1,0.5c0.4,0.2,0.9,0.3,1.4,0.3
		c0.3,0,0.5,0,0.7-0.1c0.2-0.1,0.3-0.1,0.5-0.2c0.1-0.1,0.2-0.2,0.3-0.4c0.1-0.1,0.1-0.2,0.1-0.4c0-0.2-0.1-0.3-0.2-0.4
		c-0.1-0.1-0.2-0.2-0.4-0.3c-0.1,0-0.2-0.1-0.3-0.1c-0.1,0-0.2-0.1-0.3-0.1c-0.1,0-0.2-0.1-0.3-0.1c-0.1,0-0.2,0-0.4-0.1
		c-0.1,0-0.2,0-0.3-0.1c-0.1,0-0.2,0-0.3-0.1c-0.2,0-0.4-0.1-0.7-0.2c-0.2-0.1-0.5-0.2-0.7-0.3c-0.2-0.1-0.4-0.3-0.6-0.4
		c-0.2-0.2-0.3-0.4-0.4-0.6c-0.1-0.2-0.2-0.5-0.2-0.9c0-0.5,0.1-0.9,0.3-1.2c0.2-0.3,0.4-0.6,0.7-0.8c0.3-0.2,0.6-0.3,1-0.4
		c0.4-0.1,0.7-0.1,1.1-0.1c0.3,0,0.7,0,0.9,0.1c0.1,0,0.3,0.1,0.4,0.1c0.1,0,0.2,0.1,0.4,0.1c0.1,0,0.2,0.1,0.4,0.2
		c0.1,0.1,0.2,0.1,0.3,0.2c0.1,0,0.1,0.1,0.2,0.1c0.1,0,0.1,0.1,0.2,0.1c0.1,0.1,0.1,0.1,0.1,0.2c0,0.1,0,0.2-0.1,0.3l-0.5,0.7
		c-0.1,0.1-0.1,0.1-0.2,0.1c-0.1,0-0.2,0-0.3-0.1c-0.3-0.2-0.6-0.3-0.8-0.4c-0.4-0.1-0.7-0.2-1.1-0.2c-0.1,0-0.1,0-0.2,0
		c-0.1,0-0.2,0-0.2,0c-0.2,0-0.3,0.1-0.5,0.2c-0.1,0-0.1,0.1-0.2,0.1c-0.1,0-0.1,0.1-0.2,0.2c-0.1,0.1-0.1,0.3-0.1,0.4
		c0,0.2,0.1,0.3,0.2,0.4c0.1,0.1,0.3,0.2,0.5,0.3c0.1,0,0.2,0.1,0.3,0.1c0.1,0,0.2,0.1,0.3,0.1c0.1,0,0.2,0.1,0.3,0.1
		c0.1,0,0.2,0,0.3,0.1c0.1,0,0.2,0,0.3,0.1c0.1,0,0.2,0,0.3,0.1c0.1,0,0.2,0,0.3,0.1c0.1,0,0.2,0.1,0.3,0.1c0.1,0,0.1,0,0.2,0.1
		c0.1,0,0.1,0,0.2,0.1c0.1,0,0.2,0.1,0.3,0.1c0.1,0.1,0.2,0.1,0.3,0.2c0.1,0,0.1,0.1,0.2,0.1c0,0,0.1,0.1,0.1,0.1
		c0.2,0.2,0.3,0.4,0.4,0.7c0.1,0.3,0.2,0.6,0.2,1c0,0.4-0.1,0.8-0.2,1.1c-0.2,0.3-0.4,0.6-0.6,0.8c-0.3,0.2-0.6,0.4-1,0.5
		c-0.4,0.1-0.8,0.2-1.3,0.2c-0.4,0-0.8,0-1.1-0.1c-0.3-0.1-0.6-0.1-0.9-0.3c-0.1-0.1-0.3-0.1-0.4-0.2c-0.1-0.1-0.3-0.1-0.4-0.2
		c-0.1,0-0.2-0.1-0.2-0.1c-0.1,0-0.2-0.1-0.2-0.2c-0.1-0.1-0.1-0.1-0.1-0.2C49.1,69.1,49.1,69,49.2,69"/>
	<path class="st1" d="M58.1,69.6c0,0.2-0.1,0.4-0.2,0.6c-0.2,0.2-0.4,0.2-0.6,0.2c-0.2,0-0.4-0.1-0.6-0.2c-0.2-0.2-0.2-0.4-0.2-0.6
		c0-0.2,0.1-0.4,0.2-0.6c0.2-0.2,0.4-0.2,0.6-0.2c0.2,0,0.4,0.1,0.6,0.2C58,69.2,58.1,69.3,58.1,69.6"/>
	<path class="st1" d="M67.3,66.1c0,0.2,0,0.3,0,0.5c0,0.2,0,0.2,0,0.3c0,0.5-0.2,1-0.4,1.5c-0.2,0.4-0.5,0.8-0.9,1.1
		c-0.4,0.3-0.8,0.6-1.3,0.8c-0.5,0.2-1,0.3-1.5,0.3c-0.6,0-1.1-0.1-1.7-0.3c-0.5-0.2-1-0.5-1.4-0.9c-0.4-0.4-0.7-0.9-0.9-1.4
		c-0.2-0.5-0.3-1.1-0.3-1.7c0-0.6,0.1-1.1,0.3-1.7c0.1-0.3,0.2-0.5,0.4-0.7c0.2-0.2,0.3-0.4,0.5-0.6c0.4-0.4,0.9-0.7,1.4-0.9
		c0.5-0.2,1.1-0.3,1.7-0.3c0.8,0,1.4,0.2,2.1,0.5c0.5,0.3,1,0.7,1.3,1.1c0.1,0.1,0.1,0.2,0.1,0.2c0,0.1-0.1,0.2-0.2,0.2l-0.8,0.5
		c-0.1,0.1-0.2,0.1-0.3,0c-0.1,0-0.2-0.1-0.2-0.1c-0.1-0.1-0.2-0.2-0.3-0.3c-0.1-0.1-0.2-0.2-0.4-0.3c-0.4-0.2-0.8-0.4-1.3-0.4
		c-0.4,0-0.7,0.1-1.1,0.2c-0.3,0.2-0.6,0.4-0.9,0.6c-0.2,0.3-0.4,0.6-0.6,0.9c-0.1,0.3-0.2,0.7-0.2,1.1c0,0.4,0.1,0.7,0.2,1.1
		c0.2,0.3,0.3,0.6,0.6,0.9c0.2,0.3,0.5,0.5,0.9,0.6c0.3,0.2,0.7,0.2,1.1,0.2c0.3,0,0.6,0,0.8-0.1c0.3-0.1,0.5-0.2,0.7-0.4
		c0.2-0.2,0.4-0.3,0.6-0.6c0.1-0.1,0.2-0.3,0.2-0.4c0-0.1,0-0.2,0-0.2c0-0.1-0.1-0.1-0.2-0.1h-2.4c-0.1,0-0.2,0-0.2-0.1
		c-0.1-0.1-0.1-0.2-0.1-0.2v-0.7c0-0.1,0-0.2,0.1-0.2c0.1-0.1,0.2-0.1,0.2-0.1h4.1c0.1,0,0.2,0,0.2,0.1C67.2,66,67.3,66,67.3,66.1"
		/>
	<path class="st1" d="M70.7,70.2c-0.5-0.2-0.8-0.4-1.1-0.7c-0.3-0.3-0.6-0.7-0.7-1.1c-0.2-0.4-0.2-0.9-0.2-1.4v-4.6
		c0-0.1,0-0.2,0.1-0.2c0.1-0.1,0.1-0.1,0.2-0.1h0.9c0.1,0,0.2,0,0.2,0.1c0.1,0.1,0.1,0.2,0.1,0.2V67c0,0.4,0.1,0.8,0.2,1
		c0.1,0.3,0.3,0.5,0.5,0.6c0.2,0.2,0.4,0.3,0.6,0.3c0.1,0,0.2,0.1,0.3,0.1c0.1,0,0.2,0,0.3,0c0.2,0,0.4,0,0.6-0.1
		c0.2-0.1,0.4-0.2,0.6-0.3c0.2-0.2,0.4-0.4,0.5-0.6c0.1-0.3,0.2-0.6,0.2-1v-4.6c0-0.1,0-0.2,0.1-0.2c0.1-0.1,0.2-0.1,0.2-0.1h0.9
		c0.1,0,0.2,0,0.2,0.1c0.1,0.1,0.1,0.2,0.1,0.2V67c0,0.3,0,0.5-0.1,0.8c0,0.2-0.1,0.5-0.2,0.7c-0.2,0.4-0.4,0.8-0.7,1.1
		c-0.3,0.3-0.7,0.5-1.1,0.7c-0.4,0.2-0.9,0.2-1.5,0.2C71.6,70.5,71.1,70.4,70.7,70.2"/>
	<path class="st1" d="M78.8,70.3h-0.9c-0.1,0-0.2,0-0.2-0.1c-0.1-0.1-0.1-0.2-0.1-0.2v-7.6c0-0.1,0-0.2,0.1-0.2
		c0.1-0.1,0.2-0.1,0.2-0.1h3.4c0.4,0,0.8,0.1,1.2,0.2c0.3,0.2,0.6,0.3,0.9,0.6c0.1,0.1,0.2,0.3,0.3,0.4c0.1,0.2,0.2,0.3,0.2,0.5
		c0.1,0.4,0.2,0.7,0.2,1.2c0,0.6-0.2,1.2-0.5,1.6c-0.2,0.4-0.6,0.7-0.9,0.9c-0.1,0-0.1,0.1-0.2,0.2c0,0.1,0,0.2,0.1,0.2
		c0.3,0.4,0.5,0.7,0.8,1.1c0.3,0.3,0.5,0.7,0.8,1.1c0.1,0.1,0.1,0.2,0.1,0.2c0,0.1-0.1,0.1-0.2,0.1H83c-0.1,0-0.2,0-0.3-0.1
		c-0.1-0.1-0.2-0.1-0.2-0.2c-0.1-0.2-0.3-0.3-0.4-0.5c-0.1-0.2-0.3-0.3-0.4-0.5L80.9,68c-0.1-0.1-0.1-0.2-0.2-0.2
		c-0.1-0.1-0.2-0.1-0.3-0.1h-0.9c-0.1,0-0.2,0-0.2,0.1c-0.1,0.1-0.1,0.2-0.1,0.2V70c0,0.1,0,0.2-0.1,0.2
		C79,70.3,78.9,70.3,78.8,70.3 M79.5,66.3h1.8c0.1,0,0.3,0,0.4-0.1c0.2-0.1,0.3-0.1,0.4-0.3c0.1-0.1,0.2-0.3,0.3-0.4
		c0.1-0.2,0.1-0.4,0.1-0.6c0-0.1,0-0.3,0-0.4c0-0.1,0-0.2-0.1-0.2c0-0.1-0.1-0.2-0.1-0.2c-0.1-0.2-0.2-0.3-0.4-0.4
		c-0.2-0.1-0.4-0.2-0.7-0.2h-1.8c-0.1,0-0.2,0-0.2,0.1c-0.1,0.1-0.1,0.2-0.1,0.2v2.1c0,0.1,0,0.2,0.1,0.2
		C79.3,66.2,79.4,66.3,79.5,66.3"/>
	<path class="st1" d="M87.8,70.2c-0.5-0.2-0.8-0.4-1.1-0.7c-0.3-0.3-0.6-0.7-0.7-1.1c-0.2-0.4-0.2-0.9-0.2-1.4v-4.6
		c0-0.1,0-0.2,0.1-0.2c0.1-0.1,0.1-0.1,0.2-0.1H87c0.1,0,0.2,0,0.2,0.1c0.1,0.1,0.1,0.2,0.1,0.2V67c0,0.4,0.1,0.8,0.2,1
		c0.1,0.3,0.3,0.5,0.5,0.6c0.2,0.2,0.4,0.3,0.6,0.3c0.1,0,0.2,0.1,0.3,0.1c0.1,0,0.2,0,0.3,0c0.2,0,0.4,0,0.6-0.1
		c0.2-0.1,0.4-0.2,0.6-0.3c0.2-0.2,0.4-0.4,0.5-0.6c0.1-0.3,0.2-0.6,0.2-1v-4.6c0-0.1,0-0.2,0.1-0.2c0.1-0.1,0.2-0.1,0.2-0.1h0.9
		c0.1,0,0.2,0,0.2,0.1c0.1,0.1,0.1,0.2,0.1,0.2V67c0,0.3,0,0.5-0.1,0.8c0,0.2-0.1,0.5-0.2,0.7c-0.2,0.4-0.4,0.8-0.7,1.1
		c-0.3,0.3-0.7,0.5-1.1,0.7c-0.4,0.2-0.9,0.2-1.5,0.2C88.7,70.5,88.3,70.4,87.8,70.2"/>
</g>
<g>
	<defs>
		<path id="SVGID_1_" d="M2.5,0C1.8,0,1.2,0.2,0.7,0.7C0.2,1.2,0,1.8,0,2.5v4.9c0,0.7,0.2,1.3,0.7,1.7c0.5,0.5,1.1,0.7,1.7,0.7h11.8
			c0.7,0,1.3,0.2,1.7,0.7c0.5,0.5,0.7,1.1,0.7,1.7v43.4c0,0.7,0.2,1.3,0.7,1.7c0.5,0.5,1.1,0.7,1.7,0.7h6.2c0.7,0,1.3-0.2,1.7-0.7
			c0.5-0.5,0.7-1.1,0.7-1.7V12.3c0-0.7,0.2-1.3,0.7-1.7c0.5-0.5,1.1-0.7,1.7-0.7h30.5c0.7,0,1.3-0.2,1.7-0.7
			c0.5-0.5,0.7-1.1,0.7-1.7V2.5c0-0.7-0.2-1.3-0.7-1.7C62,0.2,61.4,0,60.8,0H2.5z"/>
	</defs>
	<clipPath id="SVGID_2_">
		<use xlink:href="#SVGID_1_"  style="overflow:visible;"/>
	</clipPath>
	
		<linearGradient id="SVGID_3_" gradientUnits="userSpaceOnUse" x1="-249.855" y1="457.67" x2="-248.855" y2="457.67" gradientTransform="matrix(63.2138 0 0 -63.2138 15794.2725 28960.123)">
		<stop  offset="0" style="stop-color:#EE3242"/>
		<stop  offset="0.273" style="stop-color:#EE3242"/>
		<stop  offset="0.6203" style="stop-color:#E94897"/>
		<stop  offset="0.6563" style="stop-color:#E94897"/>
		<stop  offset="1" style="stop-color:#E94897"/>
	</linearGradient>
	<rect x="0" class="st2" width="63.2" height="58.2"/>
</g>
<g>
	<defs>
		<path id="SVGID_4_" d="M28.8,55.7c0,0.9-0.3,1.8-1,2.5c0,0,0,0,0,0h26.8c-1.4-0.4-2.7-0.8-4-1.4c-3.6-1.6-6.8-3.8-9.6-6.5
			c-0.7-0.7-1.3-1.4-2-2.1h-8.4c-0.7,0-1.3-0.2-1.7-0.7c-0.1-0.1-0.1-0.1-0.2-0.2V55.7z M45.2,26.4c-0.1,0.9-0.2,1.8-0.2,2.7
			c0,2.5,0.5,4.8,1.4,6.9c0,0,0,0.1,0,0.1h4.3c0.7,0,1.3-0.2,1.7-0.7c0.5-0.5,0.7-1.1,0.7-1.7v-4.8c0-0.7-0.2-1.3-0.7-1.7
			c-0.5-0.5-1.1-0.7-1.7-0.7H45.2z M28.8,37c0.1-0.1,0.1-0.1,0.2-0.2c0.5-0.5,1.1-0.7,1.7-0.7H33c-0.5-2.3-0.8-4.6-0.8-7
			c0-0.9,0-1.8,0.1-2.7h-1.6c-0.7,0-1.3-0.2-1.7-0.7c-0.1-0.1-0.1-0.1-0.2-0.2V37z"/>
	</defs>
	<clipPath id="SVGID_5_">
		<use xlink:href="#SVGID_4_"  style="overflow:visible;"/>
	</clipPath>
	
		<linearGradient id="SVGID_6_" gradientUnits="userSpaceOnUse" x1="-249.855" y1="457.67" x2="-248.855" y2="457.67" gradientTransform="matrix(26.8458 0 0 -26.8458 6735.3564 12328.3418)">
		<stop  offset="0" style="stop-color:#1B75BC"/>
		<stop  offset="0.3761" style="stop-color:#1B75BC"/>
		<stop  offset="0.854" style="stop-color:#00AEEF"/>
		<stop  offset="0.8678" style="stop-color:#00AEEF"/>
		<stop  offset="1" style="stop-color:#00AEEF"/>
	</linearGradient>
	<rect x="27.8" y="25.5" class="st3" width="26.8" height="32.7"/>
</g>
<g>
	<defs>
		<path id="SVGID_7_" d="M51.1,2.3c-3.5,1.5-6.6,3.6-9.3,6.2c-1.3,1.3-2.5,2.8-3.6,4.3c-1,1.5-2,3.2-2.7,5
			c-1.5,3.6-2.3,7.4-2.3,11.3c0,4,0.8,7.7,2.3,11.3c1.5,3.4,3.6,6.5,6.3,9.2c2.7,2.7,5.7,4.8,9.3,6.3c3.5,1.5,7.3,2.3,11.3,2.3
			c3.6,0,7.1-0.6,10.4-1.8c3.3-1.2,6.2-2.9,8.7-5.1c2.5-2.1,4.6-4.7,6.2-7.7c1.6-2.9,2.5-6.2,2.8-9.8c0.1-0.2,0.1-0.7,0.1-1.8
			c0-1,0.1-2,0.1-3.1c0-0.7-0.2-1.2-0.7-1.7c-0.5-0.5-1-0.7-1.7-0.7H65.6c-0.7,0-1.2,0.2-1.7,0.7c-0.5,0.5-0.7,1-0.7,1.7v4.9
			c0,0.7,0.2,1.2,0.7,1.7c0.5,0.5,1,0.7,1.7,0.7h11.1c0.7,0,1.2,0.2,1.5,0.7c0.3,0.4,0.3,1,0,1.6c-0.4,0.9-0.9,1.8-1.5,2.7
			c-1.2,1.5-2.5,2.8-3.9,3.8c-1.5,1.1-3.1,1.9-4.9,2.5c-1.8,0.6-3.7,0.9-5.6,0.9c-2.6,0-4.9-0.5-7.1-1.6c-2.3-1-4.2-2.4-5.8-4.1
			c-1.6-1.7-3-3.8-4-6.1c-1-2.2-1.5-4.7-1.5-7.3c0-2.6,0.5-5,1.5-7.3c1-2.3,2.3-4.3,4-6.1c1.5-1.7,3.5-3.1,5.8-4.2
			c2.3-1,4.7-1.5,7.1-1.5c3,0,5.9,0.8,8.6,2.5c1,0.6,1.9,1.2,2.6,1.9c0.8,0.7,1.5,1.5,2.3,2.3c0.5,0.5,1,0.8,1.6,0.9
			c0.6,0.2,1.2,0.1,1.8-0.3l5.2-3.1c0.6-0.4,0.9-0.8,1-1.5c0.1-0.6,0-1.2-0.4-1.7c-2.4-3.1-5.3-5.6-8.8-7.5C72.1,1.2,67.4,0,62.3,0
			C58.3,0,54.6,0.8,51.1,2.3"/>
	</defs>
	<clipPath id="SVGID_8_">
		<use xlink:href="#SVGID_7_"  style="overflow:visible;"/>
	</clipPath>
	
		<linearGradient id="SVGID_9_" gradientUnits="userSpaceOnUse" x1="-249.855" y1="457.67" x2="-248.855" y2="457.67" gradientTransform="matrix(57.5514 0 0 -57.5514 14412.7002 26368.6133)">
		<stop  offset="0" style="stop-color:#28BAA8"/>
		<stop  offset="1" style="stop-color:#00AEEF"/>
	</linearGradient>
	<rect x="33.2" class="st4" width="57.5" height="58.2"/>
</g>
</svg>
